%TF.GenerationSoftware,KiCad,Pcbnew,9.0.7*%
%TF.CreationDate,2026-02-26T19:29:47-07:00*%
%TF.ProjectId,OSS-Radio_2M70CM,4f53532d-5261-4646-996f-5f324d373043,rev?*%
%TF.SameCoordinates,Original*%
%TF.FileFunction,Drillmap*%
%TF.FilePolarity,Positive*%
%FSLAX45Y45*%
G04 Gerber Fmt 4.5, Leading zero omitted, Abs format (unit mm)*
G04 Created by KiCad (PCBNEW 9.0.7) date 2026-02-26 19:29:47*
%MOMM*%
%LPD*%
G01*
G04 APERTURE LIST*
%ADD10C,0.050000*%
%ADD11C,0.200000*%
%ADD12C,0.100000*%
%ADD13C,0.220000*%
G04 APERTURE END LIST*
D10*
X13450000Y-11800000D02*
X13450000Y-8350000D01*
X13650000Y-12000000D02*
G75*
G02*
X13450000Y-11800000I0J200000D01*
G01*
X13800000Y-8000000D02*
X13650000Y-8000000D01*
X13450000Y-8200000D02*
X13450000Y-8350000D01*
X16550000Y-11800000D02*
G75*
G02*
X16350000Y-12000000I-200000J0D01*
G01*
X16350000Y-12000000D02*
X13650000Y-12000000D01*
X16200000Y-8000000D02*
X16350000Y-8000000D01*
X13800000Y-8000000D02*
X16200000Y-8000000D01*
X16550000Y-8200000D02*
X16550000Y-8350000D01*
X13450000Y-8200000D02*
G75*
G02*
X13650000Y-8000000I200000J0D01*
G01*
X16350000Y-8000000D02*
G75*
G02*
X16550000Y-8200000I0J-200000D01*
G01*
X16550000Y-8350000D02*
X16550000Y-11800000D01*
D11*
D12*
X13510000Y-9085000D02*
X13540000Y-9115000D01*
X13540000Y-9085000D02*
X13510000Y-9115000D01*
X13510000Y-9285000D02*
X13540000Y-9315000D01*
X13540000Y-9285000D02*
X13510000Y-9315000D01*
X13510000Y-9485000D02*
X13540000Y-9515000D01*
X13540000Y-9485000D02*
X13510000Y-9515000D01*
X13510000Y-9685000D02*
X13540000Y-9715000D01*
X13540000Y-9685000D02*
X13510000Y-9715000D01*
X13510000Y-9885000D02*
X13540000Y-9915000D01*
X13540000Y-9885000D02*
X13510000Y-9915000D01*
X13510000Y-10085000D02*
X13540000Y-10115000D01*
X13540000Y-10085000D02*
X13510000Y-10115000D01*
X13510000Y-10285000D02*
X13540000Y-10315000D01*
X13540000Y-10285000D02*
X13510000Y-10315000D01*
X13510000Y-10485000D02*
X13540000Y-10515000D01*
X13540000Y-10485000D02*
X13510000Y-10515000D01*
X13510000Y-10685000D02*
X13540000Y-10715000D01*
X13540000Y-10685000D02*
X13510000Y-10715000D01*
X13510000Y-10910000D02*
X13540000Y-10940000D01*
X13540000Y-10910000D02*
X13510000Y-10940000D01*
X13535000Y-8760000D02*
X13565000Y-8790000D01*
X13565000Y-8760000D02*
X13535000Y-8790000D01*
X13585000Y-11385000D02*
X13615000Y-11415000D01*
X13615000Y-11385000D02*
X13585000Y-11415000D01*
X13685000Y-8635000D02*
X13715000Y-8665000D01*
X13715000Y-8635000D02*
X13685000Y-8665000D01*
X13685000Y-8885000D02*
X13715000Y-8915000D01*
X13715000Y-8885000D02*
X13685000Y-8915000D01*
X13685000Y-9085000D02*
X13715000Y-9115000D01*
X13715000Y-9085000D02*
X13685000Y-9115000D01*
X13685000Y-9285000D02*
X13715000Y-9315000D01*
X13715000Y-9285000D02*
X13685000Y-9315000D01*
X13685000Y-9485000D02*
X13715000Y-9515000D01*
X13715000Y-9485000D02*
X13685000Y-9515000D01*
X13685000Y-9885000D02*
X13715000Y-9915000D01*
X13715000Y-9885000D02*
X13685000Y-9915000D01*
X13685000Y-10085000D02*
X13715000Y-10115000D01*
X13715000Y-10085000D02*
X13685000Y-10115000D01*
X13685000Y-10285000D02*
X13715000Y-10315000D01*
X13715000Y-10285000D02*
X13685000Y-10315000D01*
X13685000Y-10485000D02*
X13715000Y-10515000D01*
X13715000Y-10485000D02*
X13685000Y-10515000D01*
X13735000Y-10675000D02*
X13765000Y-10705000D01*
X13765000Y-10675000D02*
X13735000Y-10705000D01*
X13785000Y-10285000D02*
X13815000Y-10315000D01*
X13815000Y-10285000D02*
X13785000Y-10315000D01*
X13785000Y-10472500D02*
X13815000Y-10502500D01*
X13815000Y-10472500D02*
X13785000Y-10502500D01*
X13885000Y-8085000D02*
X13915000Y-8115000D01*
X13915000Y-8085000D02*
X13885000Y-8115000D01*
X13885000Y-8485000D02*
X13915000Y-8515000D01*
X13915000Y-8485000D02*
X13885000Y-8515000D01*
X13885000Y-9085000D02*
X13915000Y-9115000D01*
X13915000Y-9085000D02*
X13885000Y-9115000D01*
X13885000Y-9285000D02*
X13915000Y-9315000D01*
X13915000Y-9285000D02*
X13885000Y-9315000D01*
X13885000Y-9485000D02*
X13915000Y-9515000D01*
X13915000Y-9485000D02*
X13885000Y-9515000D01*
X13885000Y-11385000D02*
X13915000Y-11415000D01*
X13915000Y-11385000D02*
X13885000Y-11415000D01*
X13910000Y-9885000D02*
X13940000Y-9915000D01*
X13940000Y-9885000D02*
X13910000Y-9915000D01*
X13935000Y-10085000D02*
X13965000Y-10115000D01*
X13965000Y-10085000D02*
X13935000Y-10115000D01*
X13981942Y-8984763D02*
X14011942Y-9014763D01*
X14011942Y-8984763D02*
X13981942Y-9014763D01*
X13985000Y-8585000D02*
X14015000Y-8615000D01*
X14015000Y-8585000D02*
X13985000Y-8615000D01*
X13985000Y-8685000D02*
X14015000Y-8715000D01*
X14015000Y-8685000D02*
X13985000Y-8715000D01*
X13985000Y-8835000D02*
X14015000Y-8865000D01*
X14015000Y-8835000D02*
X13985000Y-8865000D01*
X14005000Y-11885000D02*
X14035000Y-11915000D01*
X14035000Y-11885000D02*
X14005000Y-11915000D01*
X14010000Y-9735000D02*
X14040000Y-9765000D01*
X14040000Y-9735000D02*
X14010000Y-9765000D01*
X14032790Y-10416228D02*
X14062790Y-10446228D01*
X14062790Y-10416228D02*
X14032790Y-10446228D01*
X14047500Y-10527500D02*
X14077500Y-10557500D01*
X14077500Y-10527500D02*
X14047500Y-10557500D01*
X14065000Y-10625000D02*
X14095000Y-10655000D01*
X14095000Y-10625000D02*
X14065000Y-10655000D01*
X14065000Y-10835000D02*
X14095000Y-10865000D01*
X14095000Y-10835000D02*
X14065000Y-10865000D01*
X14085000Y-8285000D02*
X14115000Y-8315000D01*
X14115000Y-8285000D02*
X14085000Y-8315000D01*
X14085000Y-8885000D02*
X14115000Y-8915000D01*
X14115000Y-8885000D02*
X14085000Y-8915000D01*
X14085000Y-9185000D02*
X14115000Y-9215000D01*
X14115000Y-9185000D02*
X14085000Y-9215000D01*
X14085000Y-9385000D02*
X14115000Y-9415000D01*
X14115000Y-9385000D02*
X14085000Y-9415000D01*
X14085000Y-9585000D02*
X14115000Y-9615000D01*
X14115000Y-9585000D02*
X14085000Y-9615000D01*
X14085000Y-10985000D02*
X14115000Y-11015000D01*
X14115000Y-10985000D02*
X14085000Y-11015000D01*
X14085000Y-11185000D02*
X14115000Y-11215000D01*
X14115000Y-11185000D02*
X14085000Y-11215000D01*
X14085000Y-11385000D02*
X14115000Y-11415000D01*
X14115000Y-11385000D02*
X14085000Y-11415000D01*
X14110000Y-9735000D02*
X14140000Y-9765000D01*
X14140000Y-9735000D02*
X14110000Y-9765000D01*
X14110000Y-10147500D02*
X14140000Y-10177500D01*
X14140000Y-10147500D02*
X14110000Y-10177500D01*
X14110000Y-10485000D02*
X14140000Y-10515000D01*
X14140000Y-10485000D02*
X14110000Y-10515000D01*
X14135000Y-8635000D02*
X14165000Y-8665000D01*
X14165000Y-8635000D02*
X14135000Y-8665000D01*
X14135000Y-8935000D02*
X14165000Y-8965000D01*
X14165000Y-8935000D02*
X14135000Y-8965000D01*
X14135000Y-9885000D02*
X14165000Y-9915000D01*
X14165000Y-9885000D02*
X14135000Y-9915000D01*
X14135000Y-11535000D02*
X14165000Y-11565000D01*
X14165000Y-11535000D02*
X14135000Y-11565000D01*
X14145000Y-10565000D02*
X14175000Y-10595000D01*
X14175000Y-10565000D02*
X14145000Y-10595000D01*
X14160000Y-9985000D02*
X14190000Y-10015000D01*
X14190000Y-9985000D02*
X14160000Y-10015000D01*
X14165000Y-11605000D02*
X14195000Y-11635000D01*
X14195000Y-11605000D02*
X14165000Y-11635000D01*
X14197500Y-9035000D02*
X14227500Y-9065000D01*
X14227500Y-9035000D02*
X14197500Y-9065000D01*
X14210000Y-11535000D02*
X14240000Y-11565000D01*
X14240000Y-11535000D02*
X14210000Y-11565000D01*
X14222500Y-11022500D02*
X14252500Y-11052500D01*
X14252500Y-11022500D02*
X14222500Y-11052500D01*
X14235000Y-8535000D02*
X14265000Y-8565000D01*
X14265000Y-8535000D02*
X14235000Y-8565000D01*
X14235000Y-10585000D02*
X14265000Y-10615000D01*
X14265000Y-10585000D02*
X14235000Y-10615000D01*
X14262000Y-10356250D02*
X14292000Y-10386250D01*
X14292000Y-10356250D02*
X14262000Y-10386250D01*
X14270015Y-11559963D02*
X14300015Y-11589963D01*
X14300015Y-11559963D02*
X14270015Y-11589963D01*
X14285000Y-8285000D02*
X14315000Y-8315000D01*
X14315000Y-8285000D02*
X14285000Y-8315000D01*
X14285000Y-11885000D02*
X14315000Y-11915000D01*
X14315000Y-11885000D02*
X14285000Y-11915000D01*
X14303650Y-10747401D02*
X14333650Y-10777401D01*
X14333650Y-10747401D02*
X14303650Y-10777401D01*
X14310000Y-8460000D02*
X14340000Y-8490000D01*
X14340000Y-8460000D02*
X14310000Y-8490000D01*
X14315000Y-11665000D02*
X14345000Y-11695000D01*
X14345000Y-11665000D02*
X14315000Y-11695000D01*
X14315000Y-11735000D02*
X14345000Y-11765000D01*
X14345000Y-11735000D02*
X14315000Y-11765000D01*
X14360000Y-10872500D02*
X14390000Y-10902500D01*
X14390000Y-10872500D02*
X14360000Y-10902500D01*
X14410000Y-9035000D02*
X14440000Y-9065000D01*
X14440000Y-9035000D02*
X14410000Y-9065000D01*
X14410000Y-9135000D02*
X14440000Y-9165000D01*
X14440000Y-9135000D02*
X14410000Y-9165000D01*
X14410000Y-9335000D02*
X14440000Y-9365000D01*
X14440000Y-9335000D02*
X14410000Y-9365000D01*
X14410000Y-9535000D02*
X14440000Y-9565000D01*
X14440000Y-9535000D02*
X14410000Y-9565000D01*
X14410000Y-9735000D02*
X14440000Y-9765000D01*
X14440000Y-9735000D02*
X14410000Y-9765000D01*
X14415000Y-9905000D02*
X14445000Y-9935000D01*
X14445000Y-9905000D02*
X14415000Y-9935000D01*
X14435000Y-8435000D02*
X14465000Y-8465000D01*
X14465000Y-8435000D02*
X14435000Y-8465000D01*
X14435000Y-10622500D02*
X14465000Y-10652500D01*
X14465000Y-10622500D02*
X14435000Y-10652500D01*
X14462215Y-8985087D02*
X14492215Y-9015087D01*
X14492215Y-8985087D02*
X14462215Y-9015087D01*
X14465000Y-8635000D02*
X14495000Y-8665000D01*
X14495000Y-8635000D02*
X14465000Y-8665000D01*
X14468509Y-8780254D02*
X14498509Y-8810254D01*
X14498509Y-8780254D02*
X14468509Y-8810254D01*
X14485000Y-8285000D02*
X14515000Y-8315000D01*
X14515000Y-8285000D02*
X14485000Y-8315000D01*
X14510000Y-9810000D02*
X14540000Y-9840000D01*
X14540000Y-9810000D02*
X14510000Y-9840000D01*
X14510000Y-10235000D02*
X14540000Y-10265000D01*
X14540000Y-10235000D02*
X14510000Y-10265000D01*
X14510000Y-10385000D02*
X14540000Y-10415000D01*
X14540000Y-10385000D02*
X14510000Y-10415000D01*
X14535000Y-8660000D02*
X14565000Y-8690000D01*
X14565000Y-8660000D02*
X14535000Y-8690000D01*
X14535000Y-8935000D02*
X14565000Y-8965000D01*
X14565000Y-8935000D02*
X14535000Y-8965000D01*
X14564365Y-11587390D02*
X14594365Y-11617390D01*
X14594365Y-11587390D02*
X14564365Y-11617390D01*
X14635000Y-8435000D02*
X14665000Y-8465000D01*
X14665000Y-8435000D02*
X14635000Y-8465000D01*
X14635000Y-8635000D02*
X14665000Y-8665000D01*
X14665000Y-8635000D02*
X14635000Y-8665000D01*
X14635000Y-9935000D02*
X14665000Y-9965000D01*
X14665000Y-9935000D02*
X14635000Y-9965000D01*
X14655000Y-11075000D02*
X14685000Y-11105000D01*
X14685000Y-11075000D02*
X14655000Y-11105000D01*
X14660000Y-10960000D02*
X14690000Y-10990000D01*
X14690000Y-10960000D02*
X14660000Y-10990000D01*
X14685000Y-8285000D02*
X14715000Y-8315000D01*
X14715000Y-8285000D02*
X14685000Y-8315000D01*
X14685000Y-9285000D02*
X14715000Y-9315000D01*
X14715000Y-9285000D02*
X14685000Y-9315000D01*
X14685000Y-9485000D02*
X14715000Y-9515000D01*
X14715000Y-9485000D02*
X14685000Y-9515000D01*
X14685000Y-9685000D02*
X14715000Y-9715000D01*
X14715000Y-9685000D02*
X14685000Y-9715000D01*
X14685000Y-10085000D02*
X14715000Y-10115000D01*
X14715000Y-10085000D02*
X14685000Y-10115000D01*
X14685000Y-10285000D02*
X14715000Y-10315000D01*
X14715000Y-10285000D02*
X14685000Y-10315000D01*
X14697500Y-11022500D02*
X14727500Y-11052500D01*
X14727500Y-11022500D02*
X14697500Y-11052500D01*
X14722500Y-10597500D02*
X14752500Y-10627500D01*
X14752500Y-10597500D02*
X14722500Y-10627500D01*
X14735000Y-9010000D02*
X14765000Y-9040000D01*
X14765000Y-9010000D02*
X14735000Y-9040000D01*
X14745000Y-9865000D02*
X14775000Y-9895000D01*
X14775000Y-9865000D02*
X14745000Y-9895000D01*
X14747500Y-10922500D02*
X14777500Y-10952500D01*
X14777500Y-10922500D02*
X14747500Y-10952500D01*
X14760000Y-10235000D02*
X14790000Y-10265000D01*
X14790000Y-10235000D02*
X14760000Y-10265000D01*
X14765000Y-11445000D02*
X14795000Y-11475000D01*
X14795000Y-11445000D02*
X14765000Y-11475000D01*
X14785000Y-11160000D02*
X14815000Y-11190000D01*
X14815000Y-11160000D02*
X14785000Y-11190000D01*
X14785100Y-10710000D02*
X14815100Y-10740000D01*
X14815100Y-10710000D02*
X14785100Y-10740000D01*
X14834500Y-11260000D02*
X14864500Y-11290000D01*
X14864500Y-11260000D02*
X14834500Y-11290000D01*
X14835000Y-8435000D02*
X14865000Y-8465000D01*
X14865000Y-8435000D02*
X14835000Y-8465000D01*
X14835000Y-8635000D02*
X14865000Y-8665000D01*
X14865000Y-8635000D02*
X14835000Y-8665000D01*
X14860000Y-9135000D02*
X14890000Y-9165000D01*
X14890000Y-9135000D02*
X14860000Y-9165000D01*
X14885000Y-8285000D02*
X14915000Y-8315000D01*
X14915000Y-8285000D02*
X14885000Y-8315000D01*
X14895500Y-10985000D02*
X14925500Y-11015000D01*
X14925500Y-10985000D02*
X14895500Y-11015000D01*
X14897500Y-8835000D02*
X14927500Y-8865000D01*
X14927500Y-8835000D02*
X14897500Y-8865000D01*
X14932700Y-10055980D02*
X14962700Y-10085980D01*
X14962700Y-10055980D02*
X14932700Y-10085980D01*
X14935000Y-9765000D02*
X14965000Y-9795000D01*
X14965000Y-9765000D02*
X14935000Y-9795000D01*
X14935000Y-10610000D02*
X14965000Y-10640000D01*
X14965000Y-10610000D02*
X14935000Y-10640000D01*
X14935000Y-10897500D02*
X14965000Y-10927500D01*
X14965000Y-10897500D02*
X14935000Y-10927500D01*
X14935500Y-9210000D02*
X14965500Y-9240000D01*
X14965500Y-9210000D02*
X14935500Y-9240000D01*
X14935500Y-10535000D02*
X14965500Y-10565000D01*
X14965500Y-10535000D02*
X14935500Y-10565000D01*
X14945000Y-10135000D02*
X14975000Y-10165000D01*
X14975000Y-10135000D02*
X14945000Y-10165000D01*
X14960000Y-9457500D02*
X14990000Y-9487500D01*
X14990000Y-9457500D02*
X14960000Y-9487500D01*
X14960000Y-11110000D02*
X14990000Y-11140000D01*
X14990000Y-11110000D02*
X14960000Y-11140000D01*
X14965000Y-9995000D02*
X14995000Y-10025000D01*
X14995000Y-9995000D02*
X14965000Y-10025000D01*
X14985000Y-11912500D02*
X15015000Y-11942500D01*
X15015000Y-11912500D02*
X14985000Y-11942500D01*
X14994173Y-9182028D02*
X15024173Y-9212028D01*
X15024173Y-9182028D02*
X14994173Y-9212028D01*
X15010000Y-10410000D02*
X15040000Y-10440000D01*
X15040000Y-10410000D02*
X15010000Y-10440000D01*
X15035000Y-8435000D02*
X15065000Y-8465000D01*
X15065000Y-8435000D02*
X15035000Y-8465000D01*
X15035000Y-8635000D02*
X15065000Y-8665000D01*
X15065000Y-8635000D02*
X15035000Y-8665000D01*
X15035000Y-9085000D02*
X15065000Y-9115000D01*
X15065000Y-9085000D02*
X15035000Y-9115000D01*
X15035000Y-11185000D02*
X15065000Y-11215000D01*
X15065000Y-11185000D02*
X15035000Y-11215000D01*
X15060000Y-11310000D02*
X15090000Y-11340000D01*
X15090000Y-11310000D02*
X15060000Y-11340000D01*
X15061965Y-10933690D02*
X15091965Y-10963690D01*
X15091965Y-10933690D02*
X15061965Y-10963690D01*
X15084500Y-9375000D02*
X15114500Y-9405000D01*
X15114500Y-9375000D02*
X15084500Y-9405000D01*
X15085000Y-8085000D02*
X15115000Y-8115000D01*
X15115000Y-8085000D02*
X15085000Y-8115000D01*
X15085000Y-8285000D02*
X15115000Y-8315000D01*
X15115000Y-8285000D02*
X15085000Y-8315000D01*
X15085000Y-9020000D02*
X15115000Y-9050000D01*
X15115000Y-9020000D02*
X15085000Y-9050000D01*
X15095000Y-9805000D02*
X15125000Y-9835000D01*
X15125000Y-9805000D02*
X15095000Y-9835000D01*
X15095000Y-9885000D02*
X15125000Y-9915000D01*
X15125000Y-9885000D02*
X15095000Y-9915000D01*
X15095000Y-9955000D02*
X15125000Y-9985000D01*
X15125000Y-9955000D02*
X15095000Y-9985000D01*
X15115000Y-10135000D02*
X15145000Y-10165000D01*
X15145000Y-10135000D02*
X15115000Y-10165000D01*
X15122500Y-11047500D02*
X15152500Y-11077500D01*
X15152500Y-11047500D02*
X15122500Y-11077500D01*
X15125000Y-9562500D02*
X15155000Y-9592500D01*
X15155000Y-9562500D02*
X15125000Y-9592500D01*
X15125000Y-9695000D02*
X15155000Y-9725000D01*
X15155000Y-9695000D02*
X15125000Y-9725000D01*
X15135000Y-11912500D02*
X15165000Y-11942500D01*
X15165000Y-11912500D02*
X15135000Y-11942500D01*
X15160000Y-10335000D02*
X15190000Y-10365000D01*
X15190000Y-10335000D02*
X15160000Y-10365000D01*
X15160000Y-11210000D02*
X15190000Y-11240000D01*
X15190000Y-11210000D02*
X15160000Y-11240000D01*
X15169547Y-10960000D02*
X15199547Y-10990000D01*
X15199547Y-10960000D02*
X15169547Y-10990000D01*
X15173546Y-9196454D02*
X15203546Y-9226454D01*
X15203546Y-9196454D02*
X15173546Y-9226454D01*
X15175000Y-9955000D02*
X15205000Y-9985000D01*
X15205000Y-9955000D02*
X15175000Y-9985000D01*
X15210709Y-9439291D02*
X15240709Y-9469291D01*
X15240709Y-9439291D02*
X15210709Y-9469291D01*
X15220047Y-10685000D02*
X15250047Y-10715000D01*
X15250047Y-10685000D02*
X15220047Y-10715000D01*
X15235000Y-8645000D02*
X15265000Y-8675000D01*
X15265000Y-8645000D02*
X15235000Y-8675000D01*
X15235000Y-9710000D02*
X15265000Y-9740000D01*
X15265000Y-9710000D02*
X15235000Y-9740000D01*
X15235000Y-10485000D02*
X15265000Y-10515000D01*
X15265000Y-10485000D02*
X15235000Y-10515000D01*
X15237671Y-9185500D02*
X15267671Y-9215500D01*
X15267671Y-9185500D02*
X15237671Y-9215500D01*
X15247500Y-8460000D02*
X15277500Y-8490000D01*
X15277500Y-8460000D02*
X15247500Y-8490000D01*
X15260000Y-8962500D02*
X15290000Y-8992500D01*
X15290000Y-8962500D02*
X15260000Y-8992500D01*
X15260000Y-9034500D02*
X15290000Y-9064500D01*
X15290000Y-9034500D02*
X15260000Y-9064500D01*
X15285000Y-8085000D02*
X15315000Y-8115000D01*
X15315000Y-8085000D02*
X15285000Y-8115000D01*
X15285000Y-8285000D02*
X15315000Y-8315000D01*
X15315000Y-8285000D02*
X15285000Y-8315000D01*
X15310000Y-11310000D02*
X15340000Y-11340000D01*
X15340000Y-11310000D02*
X15310000Y-11340000D01*
X15328209Y-10788209D02*
X15358209Y-10818209D01*
X15358209Y-10788209D02*
X15328209Y-10818209D01*
X15335000Y-10960000D02*
X15365000Y-10990000D01*
X15365000Y-10960000D02*
X15335000Y-10990000D01*
X15335000Y-11810000D02*
X15365000Y-11840000D01*
X15365000Y-11810000D02*
X15335000Y-11840000D01*
X15335000Y-11885000D02*
X15365000Y-11915000D01*
X15365000Y-11885000D02*
X15335000Y-11915000D01*
X15360000Y-10360000D02*
X15390000Y-10390000D01*
X15390000Y-10360000D02*
X15360000Y-10390000D01*
X15360000Y-11477500D02*
X15390000Y-11507500D01*
X15390000Y-11477500D02*
X15360000Y-11507500D01*
X15375000Y-10015000D02*
X15405000Y-10045000D01*
X15405000Y-10015000D02*
X15375000Y-10045000D01*
X15382500Y-11085000D02*
X15412500Y-11115000D01*
X15412500Y-11085000D02*
X15382500Y-11115000D01*
X15396264Y-9818736D02*
X15426264Y-9848736D01*
X15426264Y-9818736D02*
X15396264Y-9848736D01*
X15397500Y-10647500D02*
X15427500Y-10677500D01*
X15427500Y-10647500D02*
X15397500Y-10677500D01*
X15398400Y-9905000D02*
X15428400Y-9935000D01*
X15428400Y-9905000D02*
X15398400Y-9935000D01*
X15410000Y-8510000D02*
X15440000Y-8540000D01*
X15440000Y-8510000D02*
X15410000Y-8540000D01*
X15410000Y-10535000D02*
X15440000Y-10565000D01*
X15440000Y-10535000D02*
X15410000Y-10565000D01*
X15425000Y-8695000D02*
X15455000Y-8725000D01*
X15455000Y-8695000D02*
X15425000Y-8725000D01*
X15435000Y-9535000D02*
X15465000Y-9565000D01*
X15465000Y-9535000D02*
X15435000Y-9565000D01*
X15435000Y-11510000D02*
X15465000Y-11540000D01*
X15465000Y-11510000D02*
X15435000Y-11540000D01*
X15435000Y-11810000D02*
X15465000Y-11840000D01*
X15465000Y-11810000D02*
X15435000Y-11840000D01*
X15435000Y-11885000D02*
X15465000Y-11915000D01*
X15465000Y-11885000D02*
X15435000Y-11915000D01*
X15485000Y-10235000D02*
X15515000Y-10265000D01*
X15515000Y-10235000D02*
X15485000Y-10265000D01*
X15493765Y-9094519D02*
X15523765Y-9124519D01*
X15523765Y-9094519D02*
X15493765Y-9124519D01*
X15497500Y-11060000D02*
X15527500Y-11090000D01*
X15527500Y-11060000D02*
X15497500Y-11090000D01*
X15498750Y-10810576D02*
X15528750Y-10840576D01*
X15528750Y-10810576D02*
X15498750Y-10840576D01*
X15521250Y-10946250D02*
X15551250Y-10976250D01*
X15551250Y-10946250D02*
X15521250Y-10976250D01*
X15535000Y-9535000D02*
X15565000Y-9565000D01*
X15565000Y-9535000D02*
X15535000Y-9565000D01*
X15535000Y-11885000D02*
X15565000Y-11915000D01*
X15565000Y-11885000D02*
X15535000Y-11915000D01*
X15558663Y-9085000D02*
X15588663Y-9115000D01*
X15588663Y-9085000D02*
X15558663Y-9115000D01*
X15560000Y-11235000D02*
X15590000Y-11265000D01*
X15590000Y-11235000D02*
X15560000Y-11265000D01*
X15575000Y-8995000D02*
X15605000Y-9025000D01*
X15605000Y-8995000D02*
X15575000Y-9025000D01*
X15585000Y-10060000D02*
X15615000Y-10090000D01*
X15615000Y-10060000D02*
X15585000Y-10090000D01*
X15615000Y-8795000D02*
X15645000Y-8825000D01*
X15645000Y-8795000D02*
X15615000Y-8825000D01*
X15622244Y-9071491D02*
X15652244Y-9101491D01*
X15652244Y-9071491D02*
X15622244Y-9101491D01*
X15628337Y-9766663D02*
X15658337Y-9796663D01*
X15658337Y-9766663D02*
X15628337Y-9796663D01*
X15635000Y-9335000D02*
X15665000Y-9365000D01*
X15665000Y-9335000D02*
X15635000Y-9365000D01*
X15635000Y-9435000D02*
X15665000Y-9465000D01*
X15665000Y-9435000D02*
X15635000Y-9465000D01*
X15635000Y-9535000D02*
X15665000Y-9565000D01*
X15665000Y-9535000D02*
X15635000Y-9565000D01*
X15635000Y-11535000D02*
X15665000Y-11565000D01*
X15665000Y-11535000D02*
X15635000Y-11565000D01*
X15635000Y-11885000D02*
X15665000Y-11915000D01*
X15665000Y-11885000D02*
X15635000Y-11915000D01*
X15647500Y-8610000D02*
X15677500Y-8640000D01*
X15677500Y-8610000D02*
X15647500Y-8640000D01*
X15660000Y-8960000D02*
X15690000Y-8990000D01*
X15690000Y-8960000D02*
X15660000Y-8990000D01*
X15660000Y-10285000D02*
X15690000Y-10315000D01*
X15690000Y-10285000D02*
X15660000Y-10315000D01*
X15685000Y-10585000D02*
X15715000Y-10615000D01*
X15715000Y-10585000D02*
X15685000Y-10615000D01*
X15709000Y-10035000D02*
X15739000Y-10065000D01*
X15739000Y-10035000D02*
X15709000Y-10065000D01*
X15735000Y-11885000D02*
X15765000Y-11915000D01*
X15765000Y-11885000D02*
X15735000Y-11915000D01*
X15745000Y-8985000D02*
X15775000Y-9015000D01*
X15775000Y-8985000D02*
X15745000Y-9015000D01*
X15785000Y-11235000D02*
X15815000Y-11265000D01*
X15815000Y-11235000D02*
X15785000Y-11265000D01*
X15797500Y-9210000D02*
X15827500Y-9240000D01*
X15827500Y-9210000D02*
X15797500Y-9240000D01*
X15797600Y-9688750D02*
X15827600Y-9718750D01*
X15827600Y-9688750D02*
X15797600Y-9718750D01*
X15810000Y-8910000D02*
X15840000Y-8940000D01*
X15840000Y-8910000D02*
X15810000Y-8940000D01*
X15835000Y-8685000D02*
X15865000Y-8715000D01*
X15865000Y-8685000D02*
X15835000Y-8715000D01*
X15835000Y-10110000D02*
X15865000Y-10140000D01*
X15865000Y-10110000D02*
X15835000Y-10140000D01*
X15835000Y-11535000D02*
X15865000Y-11565000D01*
X15865000Y-11535000D02*
X15835000Y-11565000D01*
X15835000Y-11885000D02*
X15865000Y-11915000D01*
X15865000Y-11885000D02*
X15835000Y-11915000D01*
X15872500Y-11047500D02*
X15902500Y-11077500D01*
X15902500Y-11047500D02*
X15872500Y-11077500D01*
X15872500Y-11135000D02*
X15902500Y-11165000D01*
X15902500Y-11135000D02*
X15872500Y-11165000D01*
X15885000Y-10585000D02*
X15915000Y-10615000D01*
X15915000Y-10585000D02*
X15885000Y-10615000D01*
X15935000Y-9510000D02*
X15965000Y-9540000D01*
X15965000Y-9510000D02*
X15935000Y-9540000D01*
X15935000Y-10285000D02*
X15965000Y-10315000D01*
X15965000Y-10285000D02*
X15935000Y-10315000D01*
X15935000Y-11885000D02*
X15965000Y-11915000D01*
X15965000Y-11885000D02*
X15935000Y-11915000D01*
X15936100Y-9885000D02*
X15966100Y-9915000D01*
X15966100Y-9885000D02*
X15936100Y-9915000D01*
X15947500Y-10710000D02*
X15977500Y-10740000D01*
X15977500Y-10710000D02*
X15947500Y-10740000D01*
X15975000Y-8785000D02*
X16005000Y-8815000D01*
X16005000Y-8785000D02*
X15975000Y-8815000D01*
X15985000Y-9085000D02*
X16015000Y-9115000D01*
X16015000Y-9085000D02*
X15985000Y-9115000D01*
X16005000Y-10060000D02*
X16035000Y-10090000D01*
X16035000Y-10060000D02*
X16005000Y-10090000D01*
X16072500Y-9960000D02*
X16102500Y-9990000D01*
X16102500Y-9960000D02*
X16072500Y-9990000D01*
X16083500Y-10285000D02*
X16113500Y-10315000D01*
X16113500Y-10285000D02*
X16083500Y-10315000D01*
X16085000Y-8085000D02*
X16115000Y-8115000D01*
X16115000Y-8085000D02*
X16085000Y-8115000D01*
X16085000Y-8485000D02*
X16115000Y-8515000D01*
X16115000Y-8485000D02*
X16085000Y-8515000D01*
X16085000Y-8685000D02*
X16115000Y-8715000D01*
X16115000Y-8685000D02*
X16085000Y-8715000D01*
X16085000Y-9185000D02*
X16115000Y-9215000D01*
X16115000Y-9185000D02*
X16085000Y-9215000D01*
X16085000Y-10585000D02*
X16115000Y-10615000D01*
X16115000Y-10585000D02*
X16085000Y-10615000D01*
X16085000Y-11335000D02*
X16115000Y-11365000D01*
X16115000Y-11335000D02*
X16085000Y-11365000D01*
X16110000Y-8910000D02*
X16140000Y-8940000D01*
X16140000Y-8910000D02*
X16110000Y-8940000D01*
X16110000Y-9285000D02*
X16140000Y-9315000D01*
X16140000Y-9285000D02*
X16110000Y-9315000D01*
X16110000Y-9435000D02*
X16140000Y-9465000D01*
X16140000Y-9435000D02*
X16110000Y-9465000D01*
X16110000Y-9585000D02*
X16140000Y-9615000D01*
X16140000Y-9585000D02*
X16110000Y-9615000D01*
X16110000Y-9735000D02*
X16140000Y-9765000D01*
X16140000Y-9735000D02*
X16110000Y-9765000D01*
X16110000Y-9860000D02*
X16140000Y-9890000D01*
X16140000Y-9860000D02*
X16110000Y-9890000D01*
X16185000Y-9010000D02*
X16215000Y-9040000D01*
X16215000Y-9010000D02*
X16185000Y-9040000D01*
X16235000Y-10285000D02*
X16265000Y-10315000D01*
X16265000Y-10285000D02*
X16235000Y-10315000D01*
X16247500Y-9110000D02*
X16277500Y-9140000D01*
X16277500Y-9110000D02*
X16247500Y-9140000D01*
X16285000Y-8685000D02*
X16315000Y-8715000D01*
X16315000Y-8685000D02*
X16285000Y-8715000D01*
X16285000Y-8885000D02*
X16315000Y-8915000D01*
X16315000Y-8885000D02*
X16285000Y-8915000D01*
X16285000Y-9235000D02*
X16315000Y-9265000D01*
X16315000Y-9235000D02*
X16285000Y-9265000D01*
X16285000Y-9360000D02*
X16315000Y-9390000D01*
X16315000Y-9360000D02*
X16285000Y-9390000D01*
X16285000Y-9485000D02*
X16315000Y-9515000D01*
X16315000Y-9485000D02*
X16285000Y-9515000D01*
X16285000Y-9610000D02*
X16315000Y-9640000D01*
X16315000Y-9610000D02*
X16285000Y-9640000D01*
X16285000Y-9735000D02*
X16315000Y-9765000D01*
X16315000Y-9735000D02*
X16285000Y-9765000D01*
X16285000Y-9860000D02*
X16315000Y-9890000D01*
X16315000Y-9860000D02*
X16285000Y-9890000D01*
X16285000Y-10185000D02*
X16315000Y-10215000D01*
X16315000Y-10185000D02*
X16285000Y-10215000D01*
X16285000Y-10385000D02*
X16315000Y-10415000D01*
X16315000Y-10385000D02*
X16285000Y-10415000D01*
X16285000Y-10585000D02*
X16315000Y-10615000D01*
X16315000Y-10585000D02*
X16285000Y-10615000D01*
X16285000Y-10785000D02*
X16315000Y-10815000D01*
X16315000Y-10785000D02*
X16285000Y-10815000D01*
X16310000Y-10085000D02*
X16340000Y-10115000D01*
X16340000Y-10085000D02*
X16310000Y-10115000D01*
X16385000Y-11335000D02*
X16415000Y-11365000D01*
X16415000Y-11335000D02*
X16385000Y-11365000D01*
X16435000Y-8485000D02*
X16465000Y-8515000D01*
X16465000Y-8485000D02*
X16435000Y-8515000D01*
X16435000Y-8685000D02*
X16465000Y-8715000D01*
X16465000Y-8685000D02*
X16435000Y-8715000D01*
X16435000Y-8885000D02*
X16465000Y-8915000D01*
X16465000Y-8885000D02*
X16435000Y-8915000D01*
X16435000Y-9085000D02*
X16465000Y-9115000D01*
X16465000Y-9085000D02*
X16435000Y-9115000D01*
X16435000Y-9285000D02*
X16465000Y-9315000D01*
X16465000Y-9285000D02*
X16435000Y-9315000D01*
X16435000Y-9485000D02*
X16465000Y-9515000D01*
X16465000Y-9485000D02*
X16435000Y-9515000D01*
X16435000Y-9685000D02*
X16465000Y-9715000D01*
X16465000Y-9685000D02*
X16435000Y-9715000D01*
X16435000Y-9885000D02*
X16465000Y-9915000D01*
X16465000Y-9885000D02*
X16435000Y-9915000D01*
X16435000Y-10085000D02*
X16465000Y-10115000D01*
X16465000Y-10085000D02*
X16435000Y-10115000D01*
X16435000Y-10285000D02*
X16465000Y-10315000D01*
X16465000Y-10285000D02*
X16435000Y-10315000D01*
X14385000Y-11173750D02*
G75*
G02*
X14355000Y-11173750I-15000J0D01*
G01*
X14355000Y-11173750D02*
G75*
G02*
X14385000Y-11173750I15000J0D01*
G01*
X14385000Y-11273750D02*
G75*
G02*
X14355000Y-11273750I-15000J0D01*
G01*
X14355000Y-11273750D02*
G75*
G02*
X14385000Y-11273750I15000J0D01*
G01*
X14385000Y-11373750D02*
G75*
G02*
X14355000Y-11373750I-15000J0D01*
G01*
X14355000Y-11373750D02*
G75*
G02*
X14385000Y-11373750I15000J0D01*
G01*
X14485000Y-11173750D02*
G75*
G02*
X14455000Y-11173750I-15000J0D01*
G01*
X14455000Y-11173750D02*
G75*
G02*
X14485000Y-11173750I15000J0D01*
G01*
X14485000Y-11273750D02*
G75*
G02*
X14455000Y-11273750I-15000J0D01*
G01*
X14455000Y-11273750D02*
G75*
G02*
X14485000Y-11273750I15000J0D01*
G01*
X14485000Y-11373750D02*
G75*
G02*
X14455000Y-11373750I-15000J0D01*
G01*
X14455000Y-11373750D02*
G75*
G02*
X14485000Y-11373750I15000J0D01*
G01*
X14585000Y-11173750D02*
G75*
G02*
X14555000Y-11173750I-15000J0D01*
G01*
X14555000Y-11173750D02*
G75*
G02*
X14585000Y-11173750I15000J0D01*
G01*
X14585000Y-11273750D02*
G75*
G02*
X14555000Y-11273750I-15000J0D01*
G01*
X14555000Y-11273750D02*
G75*
G02*
X14585000Y-11273750I15000J0D01*
G01*
X14585000Y-11373750D02*
G75*
G02*
X14555000Y-11373750I-15000J0D01*
G01*
X14555000Y-11373750D02*
G75*
G02*
X14585000Y-11373750I15000J0D01*
G01*
X13564987Y-8606000D02*
X13564987Y-8690000D01*
X13522987Y-8648000D02*
X13606987Y-8648000D01*
X13564987Y-8860000D02*
X13564987Y-8944000D01*
X13522987Y-8902000D02*
X13606987Y-8902000D01*
X13691987Y-8733000D02*
X13691987Y-8817000D01*
X13649987Y-8775000D02*
X13733987Y-8775000D01*
X13818987Y-8606000D02*
X13818987Y-8690000D01*
X13776987Y-8648000D02*
X13860987Y-8648000D01*
X13818987Y-8860000D02*
X13818987Y-8944000D01*
X13776987Y-8902000D02*
X13860987Y-8902000D01*
D13*
X13827782Y-8377782D02*
X13827782Y-8222217D01*
X13672217Y-8222217D01*
X13672217Y-8377782D01*
X13827782Y-8377782D01*
X13827782Y-11177783D02*
X13827782Y-11022218D01*
X13672217Y-11022218D01*
X13672217Y-11177783D01*
X13827782Y-11177783D01*
X16327782Y-8377782D02*
X16327782Y-8222217D01*
X16172217Y-8222217D01*
X16172217Y-8377782D01*
X16327782Y-8377782D01*
X16327782Y-11177783D02*
X16327782Y-11022218D01*
X16172217Y-11022218D01*
X16172217Y-11177783D01*
X16327782Y-11177783D01*
D11*
X13708277Y-12313984D02*
X13708277Y-12113984D01*
X13708277Y-12113984D02*
X13755896Y-12113984D01*
X13755896Y-12113984D02*
X13784467Y-12123508D01*
X13784467Y-12123508D02*
X13803515Y-12142555D01*
X13803515Y-12142555D02*
X13813039Y-12161603D01*
X13813039Y-12161603D02*
X13822562Y-12199698D01*
X13822562Y-12199698D02*
X13822562Y-12228269D01*
X13822562Y-12228269D02*
X13813039Y-12266365D01*
X13813039Y-12266365D02*
X13803515Y-12285412D01*
X13803515Y-12285412D02*
X13784467Y-12304460D01*
X13784467Y-12304460D02*
X13755896Y-12313984D01*
X13755896Y-12313984D02*
X13708277Y-12313984D01*
X13908277Y-12313984D02*
X13908277Y-12180650D01*
X13908277Y-12218746D02*
X13917801Y-12199698D01*
X13917801Y-12199698D02*
X13927324Y-12190174D01*
X13927324Y-12190174D02*
X13946372Y-12180650D01*
X13946372Y-12180650D02*
X13965420Y-12180650D01*
X14032086Y-12313984D02*
X14032086Y-12180650D01*
X14032086Y-12113984D02*
X14022562Y-12123508D01*
X14022562Y-12123508D02*
X14032086Y-12133031D01*
X14032086Y-12133031D02*
X14041610Y-12123508D01*
X14041610Y-12123508D02*
X14032086Y-12113984D01*
X14032086Y-12113984D02*
X14032086Y-12133031D01*
X14155896Y-12313984D02*
X14136848Y-12304460D01*
X14136848Y-12304460D02*
X14127324Y-12285412D01*
X14127324Y-12285412D02*
X14127324Y-12113984D01*
X14260658Y-12313984D02*
X14241610Y-12304460D01*
X14241610Y-12304460D02*
X14232086Y-12285412D01*
X14232086Y-12285412D02*
X14232086Y-12113984D01*
X14489229Y-12313984D02*
X14489229Y-12113984D01*
X14489229Y-12113984D02*
X14555896Y-12256841D01*
X14555896Y-12256841D02*
X14622562Y-12113984D01*
X14622562Y-12113984D02*
X14622562Y-12313984D01*
X14803515Y-12313984D02*
X14803515Y-12209222D01*
X14803515Y-12209222D02*
X14793991Y-12190174D01*
X14793991Y-12190174D02*
X14774943Y-12180650D01*
X14774943Y-12180650D02*
X14736848Y-12180650D01*
X14736848Y-12180650D02*
X14717801Y-12190174D01*
X14803515Y-12304460D02*
X14784467Y-12313984D01*
X14784467Y-12313984D02*
X14736848Y-12313984D01*
X14736848Y-12313984D02*
X14717801Y-12304460D01*
X14717801Y-12304460D02*
X14708277Y-12285412D01*
X14708277Y-12285412D02*
X14708277Y-12266365D01*
X14708277Y-12266365D02*
X14717801Y-12247317D01*
X14717801Y-12247317D02*
X14736848Y-12237793D01*
X14736848Y-12237793D02*
X14784467Y-12237793D01*
X14784467Y-12237793D02*
X14803515Y-12228269D01*
X14898753Y-12180650D02*
X14898753Y-12380650D01*
X14898753Y-12190174D02*
X14917801Y-12180650D01*
X14917801Y-12180650D02*
X14955896Y-12180650D01*
X14955896Y-12180650D02*
X14974943Y-12190174D01*
X14974943Y-12190174D02*
X14984467Y-12199698D01*
X14984467Y-12199698D02*
X14993991Y-12218746D01*
X14993991Y-12218746D02*
X14993991Y-12275888D01*
X14993991Y-12275888D02*
X14984467Y-12294936D01*
X14984467Y-12294936D02*
X14974943Y-12304460D01*
X14974943Y-12304460D02*
X14955896Y-12313984D01*
X14955896Y-12313984D02*
X14917801Y-12313984D01*
X14917801Y-12313984D02*
X14898753Y-12304460D01*
X15079705Y-12294936D02*
X15089229Y-12304460D01*
X15089229Y-12304460D02*
X15079705Y-12313984D01*
X15079705Y-12313984D02*
X15070182Y-12304460D01*
X15070182Y-12304460D02*
X15079705Y-12294936D01*
X15079705Y-12294936D02*
X15079705Y-12313984D01*
X15079705Y-12190174D02*
X15089229Y-12199698D01*
X15089229Y-12199698D02*
X15079705Y-12209222D01*
X15079705Y-12209222D02*
X15070182Y-12199698D01*
X15070182Y-12199698D02*
X15079705Y-12190174D01*
X15079705Y-12190174D02*
X15079705Y-12209222D01*
D12*
X13417500Y-12627500D02*
X13447500Y-12657500D01*
X13447500Y-12627500D02*
X13417500Y-12657500D01*
D11*
X13746372Y-12533984D02*
X13765420Y-12533984D01*
X13765420Y-12533984D02*
X13784467Y-12543508D01*
X13784467Y-12543508D02*
X13793991Y-12553031D01*
X13793991Y-12553031D02*
X13803515Y-12572079D01*
X13803515Y-12572079D02*
X13813039Y-12610174D01*
X13813039Y-12610174D02*
X13813039Y-12657793D01*
X13813039Y-12657793D02*
X13803515Y-12695888D01*
X13803515Y-12695888D02*
X13793991Y-12714936D01*
X13793991Y-12714936D02*
X13784467Y-12724460D01*
X13784467Y-12724460D02*
X13765420Y-12733984D01*
X13765420Y-12733984D02*
X13746372Y-12733984D01*
X13746372Y-12733984D02*
X13727324Y-12724460D01*
X13727324Y-12724460D02*
X13717801Y-12714936D01*
X13717801Y-12714936D02*
X13708277Y-12695888D01*
X13708277Y-12695888D02*
X13698753Y-12657793D01*
X13698753Y-12657793D02*
X13698753Y-12610174D01*
X13698753Y-12610174D02*
X13708277Y-12572079D01*
X13708277Y-12572079D02*
X13717801Y-12553031D01*
X13717801Y-12553031D02*
X13727324Y-12543508D01*
X13727324Y-12543508D02*
X13746372Y-12533984D01*
X13898753Y-12714936D02*
X13908277Y-12724460D01*
X13908277Y-12724460D02*
X13898753Y-12733984D01*
X13898753Y-12733984D02*
X13889229Y-12724460D01*
X13889229Y-12724460D02*
X13898753Y-12714936D01*
X13898753Y-12714936D02*
X13898753Y-12733984D01*
X13974943Y-12533984D02*
X14098753Y-12533984D01*
X14098753Y-12533984D02*
X14032086Y-12610174D01*
X14032086Y-12610174D02*
X14060658Y-12610174D01*
X14060658Y-12610174D02*
X14079705Y-12619698D01*
X14079705Y-12619698D02*
X14089229Y-12629222D01*
X14089229Y-12629222D02*
X14098753Y-12648269D01*
X14098753Y-12648269D02*
X14098753Y-12695888D01*
X14098753Y-12695888D02*
X14089229Y-12714936D01*
X14089229Y-12714936D02*
X14079705Y-12724460D01*
X14079705Y-12724460D02*
X14060658Y-12733984D01*
X14060658Y-12733984D02*
X14003515Y-12733984D01*
X14003515Y-12733984D02*
X13984467Y-12724460D01*
X13984467Y-12724460D02*
X13974943Y-12714936D01*
X14222562Y-12533984D02*
X14241610Y-12533984D01*
X14241610Y-12533984D02*
X14260658Y-12543508D01*
X14260658Y-12543508D02*
X14270182Y-12553031D01*
X14270182Y-12553031D02*
X14279705Y-12572079D01*
X14279705Y-12572079D02*
X14289229Y-12610174D01*
X14289229Y-12610174D02*
X14289229Y-12657793D01*
X14289229Y-12657793D02*
X14279705Y-12695888D01*
X14279705Y-12695888D02*
X14270182Y-12714936D01*
X14270182Y-12714936D02*
X14260658Y-12724460D01*
X14260658Y-12724460D02*
X14241610Y-12733984D01*
X14241610Y-12733984D02*
X14222562Y-12733984D01*
X14222562Y-12733984D02*
X14203515Y-12724460D01*
X14203515Y-12724460D02*
X14193991Y-12714936D01*
X14193991Y-12714936D02*
X14184467Y-12695888D01*
X14184467Y-12695888D02*
X14174943Y-12657793D01*
X14174943Y-12657793D02*
X14174943Y-12610174D01*
X14174943Y-12610174D02*
X14184467Y-12572079D01*
X14184467Y-12572079D02*
X14193991Y-12553031D01*
X14193991Y-12553031D02*
X14203515Y-12543508D01*
X14203515Y-12543508D02*
X14222562Y-12533984D01*
X14413039Y-12533984D02*
X14432086Y-12533984D01*
X14432086Y-12533984D02*
X14451134Y-12543508D01*
X14451134Y-12543508D02*
X14460658Y-12553031D01*
X14460658Y-12553031D02*
X14470182Y-12572079D01*
X14470182Y-12572079D02*
X14479705Y-12610174D01*
X14479705Y-12610174D02*
X14479705Y-12657793D01*
X14479705Y-12657793D02*
X14470182Y-12695888D01*
X14470182Y-12695888D02*
X14460658Y-12714936D01*
X14460658Y-12714936D02*
X14451134Y-12724460D01*
X14451134Y-12724460D02*
X14432086Y-12733984D01*
X14432086Y-12733984D02*
X14413039Y-12733984D01*
X14413039Y-12733984D02*
X14393991Y-12724460D01*
X14393991Y-12724460D02*
X14384467Y-12714936D01*
X14384467Y-12714936D02*
X14374943Y-12695888D01*
X14374943Y-12695888D02*
X14365420Y-12657793D01*
X14365420Y-12657793D02*
X14365420Y-12610174D01*
X14365420Y-12610174D02*
X14374943Y-12572079D01*
X14374943Y-12572079D02*
X14384467Y-12553031D01*
X14384467Y-12553031D02*
X14393991Y-12543508D01*
X14393991Y-12543508D02*
X14413039Y-12533984D01*
X14565420Y-12733984D02*
X14565420Y-12600650D01*
X14565420Y-12619698D02*
X14574943Y-12610174D01*
X14574943Y-12610174D02*
X14593991Y-12600650D01*
X14593991Y-12600650D02*
X14622563Y-12600650D01*
X14622563Y-12600650D02*
X14641610Y-12610174D01*
X14641610Y-12610174D02*
X14651134Y-12629222D01*
X14651134Y-12629222D02*
X14651134Y-12733984D01*
X14651134Y-12629222D02*
X14660658Y-12610174D01*
X14660658Y-12610174D02*
X14679705Y-12600650D01*
X14679705Y-12600650D02*
X14708277Y-12600650D01*
X14708277Y-12600650D02*
X14727324Y-12610174D01*
X14727324Y-12610174D02*
X14736848Y-12629222D01*
X14736848Y-12629222D02*
X14736848Y-12733984D01*
X14832086Y-12733984D02*
X14832086Y-12600650D01*
X14832086Y-12619698D02*
X14841610Y-12610174D01*
X14841610Y-12610174D02*
X14860658Y-12600650D01*
X14860658Y-12600650D02*
X14889229Y-12600650D01*
X14889229Y-12600650D02*
X14908277Y-12610174D01*
X14908277Y-12610174D02*
X14917801Y-12629222D01*
X14917801Y-12629222D02*
X14917801Y-12733984D01*
X14917801Y-12629222D02*
X14927324Y-12610174D01*
X14927324Y-12610174D02*
X14946372Y-12600650D01*
X14946372Y-12600650D02*
X14974943Y-12600650D01*
X14974943Y-12600650D02*
X14993991Y-12610174D01*
X14993991Y-12610174D02*
X15003515Y-12629222D01*
X15003515Y-12629222D02*
X15003515Y-12733984D01*
X15393991Y-12524460D02*
X15222563Y-12781603D01*
X15651134Y-12533984D02*
X15670182Y-12533984D01*
X15670182Y-12533984D02*
X15689229Y-12543508D01*
X15689229Y-12543508D02*
X15698753Y-12553031D01*
X15698753Y-12553031D02*
X15708277Y-12572079D01*
X15708277Y-12572079D02*
X15717801Y-12610174D01*
X15717801Y-12610174D02*
X15717801Y-12657793D01*
X15717801Y-12657793D02*
X15708277Y-12695888D01*
X15708277Y-12695888D02*
X15698753Y-12714936D01*
X15698753Y-12714936D02*
X15689229Y-12724460D01*
X15689229Y-12724460D02*
X15670182Y-12733984D01*
X15670182Y-12733984D02*
X15651134Y-12733984D01*
X15651134Y-12733984D02*
X15632086Y-12724460D01*
X15632086Y-12724460D02*
X15622563Y-12714936D01*
X15622563Y-12714936D02*
X15613039Y-12695888D01*
X15613039Y-12695888D02*
X15603515Y-12657793D01*
X15603515Y-12657793D02*
X15603515Y-12610174D01*
X15603515Y-12610174D02*
X15613039Y-12572079D01*
X15613039Y-12572079D02*
X15622563Y-12553031D01*
X15622563Y-12553031D02*
X15632086Y-12543508D01*
X15632086Y-12543508D02*
X15651134Y-12533984D01*
X15803515Y-12714936D02*
X15813039Y-12724460D01*
X15813039Y-12724460D02*
X15803515Y-12733984D01*
X15803515Y-12733984D02*
X15793991Y-12724460D01*
X15793991Y-12724460D02*
X15803515Y-12714936D01*
X15803515Y-12714936D02*
X15803515Y-12733984D01*
X15936848Y-12533984D02*
X15955896Y-12533984D01*
X15955896Y-12533984D02*
X15974944Y-12543508D01*
X15974944Y-12543508D02*
X15984467Y-12553031D01*
X15984467Y-12553031D02*
X15993991Y-12572079D01*
X15993991Y-12572079D02*
X16003515Y-12610174D01*
X16003515Y-12610174D02*
X16003515Y-12657793D01*
X16003515Y-12657793D02*
X15993991Y-12695888D01*
X15993991Y-12695888D02*
X15984467Y-12714936D01*
X15984467Y-12714936D02*
X15974944Y-12724460D01*
X15974944Y-12724460D02*
X15955896Y-12733984D01*
X15955896Y-12733984D02*
X15936848Y-12733984D01*
X15936848Y-12733984D02*
X15917801Y-12724460D01*
X15917801Y-12724460D02*
X15908277Y-12714936D01*
X15908277Y-12714936D02*
X15898753Y-12695888D01*
X15898753Y-12695888D02*
X15889229Y-12657793D01*
X15889229Y-12657793D02*
X15889229Y-12610174D01*
X15889229Y-12610174D02*
X15898753Y-12572079D01*
X15898753Y-12572079D02*
X15908277Y-12553031D01*
X15908277Y-12553031D02*
X15917801Y-12543508D01*
X15917801Y-12543508D02*
X15936848Y-12533984D01*
X16193991Y-12733984D02*
X16079706Y-12733984D01*
X16136848Y-12733984D02*
X16136848Y-12533984D01*
X16136848Y-12533984D02*
X16117801Y-12562555D01*
X16117801Y-12562555D02*
X16098753Y-12581603D01*
X16098753Y-12581603D02*
X16079706Y-12591127D01*
X16384467Y-12733984D02*
X16270182Y-12733984D01*
X16327325Y-12733984D02*
X16327325Y-12533984D01*
X16327325Y-12533984D02*
X16308277Y-12562555D01*
X16308277Y-12562555D02*
X16289229Y-12581603D01*
X16289229Y-12581603D02*
X16270182Y-12591127D01*
X16498753Y-12619698D02*
X16479706Y-12610174D01*
X16479706Y-12610174D02*
X16470182Y-12600650D01*
X16470182Y-12600650D02*
X16460658Y-12581603D01*
X16460658Y-12581603D02*
X16460658Y-12572079D01*
X16460658Y-12572079D02*
X16470182Y-12553031D01*
X16470182Y-12553031D02*
X16479706Y-12543508D01*
X16479706Y-12543508D02*
X16498753Y-12533984D01*
X16498753Y-12533984D02*
X16536848Y-12533984D01*
X16536848Y-12533984D02*
X16555896Y-12543508D01*
X16555896Y-12543508D02*
X16565420Y-12553031D01*
X16565420Y-12553031D02*
X16574944Y-12572079D01*
X16574944Y-12572079D02*
X16574944Y-12581603D01*
X16574944Y-12581603D02*
X16565420Y-12600650D01*
X16565420Y-12600650D02*
X16555896Y-12610174D01*
X16555896Y-12610174D02*
X16536848Y-12619698D01*
X16536848Y-12619698D02*
X16498753Y-12619698D01*
X16498753Y-12619698D02*
X16479706Y-12629222D01*
X16479706Y-12629222D02*
X16470182Y-12638746D01*
X16470182Y-12638746D02*
X16460658Y-12657793D01*
X16460658Y-12657793D02*
X16460658Y-12695888D01*
X16460658Y-12695888D02*
X16470182Y-12714936D01*
X16470182Y-12714936D02*
X16479706Y-12724460D01*
X16479706Y-12724460D02*
X16498753Y-12733984D01*
X16498753Y-12733984D02*
X16536848Y-12733984D01*
X16536848Y-12733984D02*
X16555896Y-12724460D01*
X16555896Y-12724460D02*
X16565420Y-12714936D01*
X16565420Y-12714936D02*
X16574944Y-12695888D01*
X16574944Y-12695888D02*
X16574944Y-12657793D01*
X16574944Y-12657793D02*
X16565420Y-12638746D01*
X16565420Y-12638746D02*
X16555896Y-12629222D01*
X16555896Y-12629222D02*
X16536848Y-12619698D01*
X16651134Y-12533984D02*
X16651134Y-12572079D01*
X16727325Y-12533984D02*
X16727325Y-12572079D01*
X17022563Y-12810174D02*
X17013039Y-12800650D01*
X17013039Y-12800650D02*
X16993991Y-12772079D01*
X16993991Y-12772079D02*
X16984468Y-12753031D01*
X16984468Y-12753031D02*
X16974944Y-12724460D01*
X16974944Y-12724460D02*
X16965420Y-12676841D01*
X16965420Y-12676841D02*
X16965420Y-12638746D01*
X16965420Y-12638746D02*
X16974944Y-12591127D01*
X16974944Y-12591127D02*
X16984468Y-12562555D01*
X16984468Y-12562555D02*
X16993991Y-12543508D01*
X16993991Y-12543508D02*
X17013039Y-12514936D01*
X17013039Y-12514936D02*
X17022563Y-12505412D01*
X17089230Y-12553031D02*
X17098753Y-12543508D01*
X17098753Y-12543508D02*
X17117801Y-12533984D01*
X17117801Y-12533984D02*
X17165420Y-12533984D01*
X17165420Y-12533984D02*
X17184468Y-12543508D01*
X17184468Y-12543508D02*
X17193991Y-12553031D01*
X17193991Y-12553031D02*
X17203515Y-12572079D01*
X17203515Y-12572079D02*
X17203515Y-12591127D01*
X17203515Y-12591127D02*
X17193991Y-12619698D01*
X17193991Y-12619698D02*
X17079706Y-12733984D01*
X17079706Y-12733984D02*
X17203515Y-12733984D01*
X17270182Y-12533984D02*
X17403515Y-12533984D01*
X17403515Y-12533984D02*
X17317801Y-12733984D01*
X17584468Y-12733984D02*
X17470182Y-12733984D01*
X17527325Y-12733984D02*
X17527325Y-12533984D01*
X17527325Y-12533984D02*
X17508277Y-12562555D01*
X17508277Y-12562555D02*
X17489230Y-12581603D01*
X17489230Y-12581603D02*
X17470182Y-12591127D01*
X17822563Y-12733984D02*
X17822563Y-12533984D01*
X17908277Y-12733984D02*
X17908277Y-12629222D01*
X17908277Y-12629222D02*
X17898753Y-12610174D01*
X17898753Y-12610174D02*
X17879706Y-12600650D01*
X17879706Y-12600650D02*
X17851134Y-12600650D01*
X17851134Y-12600650D02*
X17832087Y-12610174D01*
X17832087Y-12610174D02*
X17822563Y-12619698D01*
X18032087Y-12733984D02*
X18013039Y-12724460D01*
X18013039Y-12724460D02*
X18003515Y-12714936D01*
X18003515Y-12714936D02*
X17993992Y-12695888D01*
X17993992Y-12695888D02*
X17993992Y-12638746D01*
X17993992Y-12638746D02*
X18003515Y-12619698D01*
X18003515Y-12619698D02*
X18013039Y-12610174D01*
X18013039Y-12610174D02*
X18032087Y-12600650D01*
X18032087Y-12600650D02*
X18060658Y-12600650D01*
X18060658Y-12600650D02*
X18079706Y-12610174D01*
X18079706Y-12610174D02*
X18089230Y-12619698D01*
X18089230Y-12619698D02*
X18098753Y-12638746D01*
X18098753Y-12638746D02*
X18098753Y-12695888D01*
X18098753Y-12695888D02*
X18089230Y-12714936D01*
X18089230Y-12714936D02*
X18079706Y-12724460D01*
X18079706Y-12724460D02*
X18060658Y-12733984D01*
X18060658Y-12733984D02*
X18032087Y-12733984D01*
X18213039Y-12733984D02*
X18193992Y-12724460D01*
X18193992Y-12724460D02*
X18184468Y-12705412D01*
X18184468Y-12705412D02*
X18184468Y-12533984D01*
X18365420Y-12724460D02*
X18346373Y-12733984D01*
X18346373Y-12733984D02*
X18308277Y-12733984D01*
X18308277Y-12733984D02*
X18289230Y-12724460D01*
X18289230Y-12724460D02*
X18279706Y-12705412D01*
X18279706Y-12705412D02*
X18279706Y-12629222D01*
X18279706Y-12629222D02*
X18289230Y-12610174D01*
X18289230Y-12610174D02*
X18308277Y-12600650D01*
X18308277Y-12600650D02*
X18346373Y-12600650D01*
X18346373Y-12600650D02*
X18365420Y-12610174D01*
X18365420Y-12610174D02*
X18374944Y-12629222D01*
X18374944Y-12629222D02*
X18374944Y-12648269D01*
X18374944Y-12648269D02*
X18279706Y-12667317D01*
X18451134Y-12724460D02*
X18470182Y-12733984D01*
X18470182Y-12733984D02*
X18508277Y-12733984D01*
X18508277Y-12733984D02*
X18527325Y-12724460D01*
X18527325Y-12724460D02*
X18536849Y-12705412D01*
X18536849Y-12705412D02*
X18536849Y-12695888D01*
X18536849Y-12695888D02*
X18527325Y-12676841D01*
X18527325Y-12676841D02*
X18508277Y-12667317D01*
X18508277Y-12667317D02*
X18479706Y-12667317D01*
X18479706Y-12667317D02*
X18460658Y-12657793D01*
X18460658Y-12657793D02*
X18451134Y-12638746D01*
X18451134Y-12638746D02*
X18451134Y-12629222D01*
X18451134Y-12629222D02*
X18460658Y-12610174D01*
X18460658Y-12610174D02*
X18479706Y-12600650D01*
X18479706Y-12600650D02*
X18508277Y-12600650D01*
X18508277Y-12600650D02*
X18527325Y-12610174D01*
X18603515Y-12810174D02*
X18613039Y-12800650D01*
X18613039Y-12800650D02*
X18632087Y-12772079D01*
X18632087Y-12772079D02*
X18641611Y-12753031D01*
X18641611Y-12753031D02*
X18651134Y-12724460D01*
X18651134Y-12724460D02*
X18660658Y-12676841D01*
X18660658Y-12676841D02*
X18660658Y-12638746D01*
X18660658Y-12638746D02*
X18651134Y-12591127D01*
X18651134Y-12591127D02*
X18641611Y-12562555D01*
X18641611Y-12562555D02*
X18632087Y-12543508D01*
X18632087Y-12543508D02*
X18613039Y-12514936D01*
X18613039Y-12514936D02*
X18603515Y-12505412D01*
D12*
X13447500Y-12906500D02*
G75*
G02*
X13417500Y-12906500I-15000J0D01*
G01*
X13417500Y-12906500D02*
G75*
G02*
X13447500Y-12906500I15000J0D01*
G01*
D11*
X13746372Y-12797984D02*
X13765420Y-12797984D01*
X13765420Y-12797984D02*
X13784467Y-12807508D01*
X13784467Y-12807508D02*
X13793991Y-12817031D01*
X13793991Y-12817031D02*
X13803515Y-12836079D01*
X13803515Y-12836079D02*
X13813039Y-12874174D01*
X13813039Y-12874174D02*
X13813039Y-12921793D01*
X13813039Y-12921793D02*
X13803515Y-12959888D01*
X13803515Y-12959888D02*
X13793991Y-12978936D01*
X13793991Y-12978936D02*
X13784467Y-12988460D01*
X13784467Y-12988460D02*
X13765420Y-12997984D01*
X13765420Y-12997984D02*
X13746372Y-12997984D01*
X13746372Y-12997984D02*
X13727324Y-12988460D01*
X13727324Y-12988460D02*
X13717801Y-12978936D01*
X13717801Y-12978936D02*
X13708277Y-12959888D01*
X13708277Y-12959888D02*
X13698753Y-12921793D01*
X13698753Y-12921793D02*
X13698753Y-12874174D01*
X13698753Y-12874174D02*
X13708277Y-12836079D01*
X13708277Y-12836079D02*
X13717801Y-12817031D01*
X13717801Y-12817031D02*
X13727324Y-12807508D01*
X13727324Y-12807508D02*
X13746372Y-12797984D01*
X13898753Y-12978936D02*
X13908277Y-12988460D01*
X13908277Y-12988460D02*
X13898753Y-12997984D01*
X13898753Y-12997984D02*
X13889229Y-12988460D01*
X13889229Y-12988460D02*
X13898753Y-12978936D01*
X13898753Y-12978936D02*
X13898753Y-12997984D01*
X13974943Y-12797984D02*
X14098753Y-12797984D01*
X14098753Y-12797984D02*
X14032086Y-12874174D01*
X14032086Y-12874174D02*
X14060658Y-12874174D01*
X14060658Y-12874174D02*
X14079705Y-12883698D01*
X14079705Y-12883698D02*
X14089229Y-12893222D01*
X14089229Y-12893222D02*
X14098753Y-12912269D01*
X14098753Y-12912269D02*
X14098753Y-12959888D01*
X14098753Y-12959888D02*
X14089229Y-12978936D01*
X14089229Y-12978936D02*
X14079705Y-12988460D01*
X14079705Y-12988460D02*
X14060658Y-12997984D01*
X14060658Y-12997984D02*
X14003515Y-12997984D01*
X14003515Y-12997984D02*
X13984467Y-12988460D01*
X13984467Y-12988460D02*
X13974943Y-12978936D01*
X14222562Y-12797984D02*
X14241610Y-12797984D01*
X14241610Y-12797984D02*
X14260658Y-12807508D01*
X14260658Y-12807508D02*
X14270182Y-12817031D01*
X14270182Y-12817031D02*
X14279705Y-12836079D01*
X14279705Y-12836079D02*
X14289229Y-12874174D01*
X14289229Y-12874174D02*
X14289229Y-12921793D01*
X14289229Y-12921793D02*
X14279705Y-12959888D01*
X14279705Y-12959888D02*
X14270182Y-12978936D01*
X14270182Y-12978936D02*
X14260658Y-12988460D01*
X14260658Y-12988460D02*
X14241610Y-12997984D01*
X14241610Y-12997984D02*
X14222562Y-12997984D01*
X14222562Y-12997984D02*
X14203515Y-12988460D01*
X14203515Y-12988460D02*
X14193991Y-12978936D01*
X14193991Y-12978936D02*
X14184467Y-12959888D01*
X14184467Y-12959888D02*
X14174943Y-12921793D01*
X14174943Y-12921793D02*
X14174943Y-12874174D01*
X14174943Y-12874174D02*
X14184467Y-12836079D01*
X14184467Y-12836079D02*
X14193991Y-12817031D01*
X14193991Y-12817031D02*
X14203515Y-12807508D01*
X14203515Y-12807508D02*
X14222562Y-12797984D01*
X14413039Y-12797984D02*
X14432086Y-12797984D01*
X14432086Y-12797984D02*
X14451134Y-12807508D01*
X14451134Y-12807508D02*
X14460658Y-12817031D01*
X14460658Y-12817031D02*
X14470182Y-12836079D01*
X14470182Y-12836079D02*
X14479705Y-12874174D01*
X14479705Y-12874174D02*
X14479705Y-12921793D01*
X14479705Y-12921793D02*
X14470182Y-12959888D01*
X14470182Y-12959888D02*
X14460658Y-12978936D01*
X14460658Y-12978936D02*
X14451134Y-12988460D01*
X14451134Y-12988460D02*
X14432086Y-12997984D01*
X14432086Y-12997984D02*
X14413039Y-12997984D01*
X14413039Y-12997984D02*
X14393991Y-12988460D01*
X14393991Y-12988460D02*
X14384467Y-12978936D01*
X14384467Y-12978936D02*
X14374943Y-12959888D01*
X14374943Y-12959888D02*
X14365420Y-12921793D01*
X14365420Y-12921793D02*
X14365420Y-12874174D01*
X14365420Y-12874174D02*
X14374943Y-12836079D01*
X14374943Y-12836079D02*
X14384467Y-12817031D01*
X14384467Y-12817031D02*
X14393991Y-12807508D01*
X14393991Y-12807508D02*
X14413039Y-12797984D01*
X14565420Y-12997984D02*
X14565420Y-12864650D01*
X14565420Y-12883698D02*
X14574943Y-12874174D01*
X14574943Y-12874174D02*
X14593991Y-12864650D01*
X14593991Y-12864650D02*
X14622563Y-12864650D01*
X14622563Y-12864650D02*
X14641610Y-12874174D01*
X14641610Y-12874174D02*
X14651134Y-12893222D01*
X14651134Y-12893222D02*
X14651134Y-12997984D01*
X14651134Y-12893222D02*
X14660658Y-12874174D01*
X14660658Y-12874174D02*
X14679705Y-12864650D01*
X14679705Y-12864650D02*
X14708277Y-12864650D01*
X14708277Y-12864650D02*
X14727324Y-12874174D01*
X14727324Y-12874174D02*
X14736848Y-12893222D01*
X14736848Y-12893222D02*
X14736848Y-12997984D01*
X14832086Y-12997984D02*
X14832086Y-12864650D01*
X14832086Y-12883698D02*
X14841610Y-12874174D01*
X14841610Y-12874174D02*
X14860658Y-12864650D01*
X14860658Y-12864650D02*
X14889229Y-12864650D01*
X14889229Y-12864650D02*
X14908277Y-12874174D01*
X14908277Y-12874174D02*
X14917801Y-12893222D01*
X14917801Y-12893222D02*
X14917801Y-12997984D01*
X14917801Y-12893222D02*
X14927324Y-12874174D01*
X14927324Y-12874174D02*
X14946372Y-12864650D01*
X14946372Y-12864650D02*
X14974943Y-12864650D01*
X14974943Y-12864650D02*
X14993991Y-12874174D01*
X14993991Y-12874174D02*
X15003515Y-12893222D01*
X15003515Y-12893222D02*
X15003515Y-12997984D01*
X15393991Y-12788460D02*
X15222563Y-13045603D01*
X15651134Y-12797984D02*
X15670182Y-12797984D01*
X15670182Y-12797984D02*
X15689229Y-12807508D01*
X15689229Y-12807508D02*
X15698753Y-12817031D01*
X15698753Y-12817031D02*
X15708277Y-12836079D01*
X15708277Y-12836079D02*
X15717801Y-12874174D01*
X15717801Y-12874174D02*
X15717801Y-12921793D01*
X15717801Y-12921793D02*
X15708277Y-12959888D01*
X15708277Y-12959888D02*
X15698753Y-12978936D01*
X15698753Y-12978936D02*
X15689229Y-12988460D01*
X15689229Y-12988460D02*
X15670182Y-12997984D01*
X15670182Y-12997984D02*
X15651134Y-12997984D01*
X15651134Y-12997984D02*
X15632086Y-12988460D01*
X15632086Y-12988460D02*
X15622563Y-12978936D01*
X15622563Y-12978936D02*
X15613039Y-12959888D01*
X15613039Y-12959888D02*
X15603515Y-12921793D01*
X15603515Y-12921793D02*
X15603515Y-12874174D01*
X15603515Y-12874174D02*
X15613039Y-12836079D01*
X15613039Y-12836079D02*
X15622563Y-12817031D01*
X15622563Y-12817031D02*
X15632086Y-12807508D01*
X15632086Y-12807508D02*
X15651134Y-12797984D01*
X15803515Y-12978936D02*
X15813039Y-12988460D01*
X15813039Y-12988460D02*
X15803515Y-12997984D01*
X15803515Y-12997984D02*
X15793991Y-12988460D01*
X15793991Y-12988460D02*
X15803515Y-12978936D01*
X15803515Y-12978936D02*
X15803515Y-12997984D01*
X15936848Y-12797984D02*
X15955896Y-12797984D01*
X15955896Y-12797984D02*
X15974944Y-12807508D01*
X15974944Y-12807508D02*
X15984467Y-12817031D01*
X15984467Y-12817031D02*
X15993991Y-12836079D01*
X15993991Y-12836079D02*
X16003515Y-12874174D01*
X16003515Y-12874174D02*
X16003515Y-12921793D01*
X16003515Y-12921793D02*
X15993991Y-12959888D01*
X15993991Y-12959888D02*
X15984467Y-12978936D01*
X15984467Y-12978936D02*
X15974944Y-12988460D01*
X15974944Y-12988460D02*
X15955896Y-12997984D01*
X15955896Y-12997984D02*
X15936848Y-12997984D01*
X15936848Y-12997984D02*
X15917801Y-12988460D01*
X15917801Y-12988460D02*
X15908277Y-12978936D01*
X15908277Y-12978936D02*
X15898753Y-12959888D01*
X15898753Y-12959888D02*
X15889229Y-12921793D01*
X15889229Y-12921793D02*
X15889229Y-12874174D01*
X15889229Y-12874174D02*
X15898753Y-12836079D01*
X15898753Y-12836079D02*
X15908277Y-12817031D01*
X15908277Y-12817031D02*
X15917801Y-12807508D01*
X15917801Y-12807508D02*
X15936848Y-12797984D01*
X16193991Y-12997984D02*
X16079706Y-12997984D01*
X16136848Y-12997984D02*
X16136848Y-12797984D01*
X16136848Y-12797984D02*
X16117801Y-12826555D01*
X16117801Y-12826555D02*
X16098753Y-12845603D01*
X16098753Y-12845603D02*
X16079706Y-12855127D01*
X16384467Y-12997984D02*
X16270182Y-12997984D01*
X16327325Y-12997984D02*
X16327325Y-12797984D01*
X16327325Y-12797984D02*
X16308277Y-12826555D01*
X16308277Y-12826555D02*
X16289229Y-12845603D01*
X16289229Y-12845603D02*
X16270182Y-12855127D01*
X16498753Y-12883698D02*
X16479706Y-12874174D01*
X16479706Y-12874174D02*
X16470182Y-12864650D01*
X16470182Y-12864650D02*
X16460658Y-12845603D01*
X16460658Y-12845603D02*
X16460658Y-12836079D01*
X16460658Y-12836079D02*
X16470182Y-12817031D01*
X16470182Y-12817031D02*
X16479706Y-12807508D01*
X16479706Y-12807508D02*
X16498753Y-12797984D01*
X16498753Y-12797984D02*
X16536848Y-12797984D01*
X16536848Y-12797984D02*
X16555896Y-12807508D01*
X16555896Y-12807508D02*
X16565420Y-12817031D01*
X16565420Y-12817031D02*
X16574944Y-12836079D01*
X16574944Y-12836079D02*
X16574944Y-12845603D01*
X16574944Y-12845603D02*
X16565420Y-12864650D01*
X16565420Y-12864650D02*
X16555896Y-12874174D01*
X16555896Y-12874174D02*
X16536848Y-12883698D01*
X16536848Y-12883698D02*
X16498753Y-12883698D01*
X16498753Y-12883698D02*
X16479706Y-12893222D01*
X16479706Y-12893222D02*
X16470182Y-12902746D01*
X16470182Y-12902746D02*
X16460658Y-12921793D01*
X16460658Y-12921793D02*
X16460658Y-12959888D01*
X16460658Y-12959888D02*
X16470182Y-12978936D01*
X16470182Y-12978936D02*
X16479706Y-12988460D01*
X16479706Y-12988460D02*
X16498753Y-12997984D01*
X16498753Y-12997984D02*
X16536848Y-12997984D01*
X16536848Y-12997984D02*
X16555896Y-12988460D01*
X16555896Y-12988460D02*
X16565420Y-12978936D01*
X16565420Y-12978936D02*
X16574944Y-12959888D01*
X16574944Y-12959888D02*
X16574944Y-12921793D01*
X16574944Y-12921793D02*
X16565420Y-12902746D01*
X16565420Y-12902746D02*
X16555896Y-12893222D01*
X16555896Y-12893222D02*
X16536848Y-12883698D01*
X16651134Y-12797984D02*
X16651134Y-12836079D01*
X16727325Y-12797984D02*
X16727325Y-12836079D01*
X17022563Y-13074174D02*
X17013039Y-13064650D01*
X17013039Y-13064650D02*
X16993991Y-13036079D01*
X16993991Y-13036079D02*
X16984468Y-13017031D01*
X16984468Y-13017031D02*
X16974944Y-12988460D01*
X16974944Y-12988460D02*
X16965420Y-12940841D01*
X16965420Y-12940841D02*
X16965420Y-12902746D01*
X16965420Y-12902746D02*
X16974944Y-12855127D01*
X16974944Y-12855127D02*
X16984468Y-12826555D01*
X16984468Y-12826555D02*
X16993991Y-12807508D01*
X16993991Y-12807508D02*
X17013039Y-12778936D01*
X17013039Y-12778936D02*
X17022563Y-12769412D01*
X17108277Y-12997984D02*
X17146372Y-12997984D01*
X17146372Y-12997984D02*
X17165420Y-12988460D01*
X17165420Y-12988460D02*
X17174944Y-12978936D01*
X17174944Y-12978936D02*
X17193991Y-12950365D01*
X17193991Y-12950365D02*
X17203515Y-12912269D01*
X17203515Y-12912269D02*
X17203515Y-12836079D01*
X17203515Y-12836079D02*
X17193991Y-12817031D01*
X17193991Y-12817031D02*
X17184468Y-12807508D01*
X17184468Y-12807508D02*
X17165420Y-12797984D01*
X17165420Y-12797984D02*
X17127325Y-12797984D01*
X17127325Y-12797984D02*
X17108277Y-12807508D01*
X17108277Y-12807508D02*
X17098753Y-12817031D01*
X17098753Y-12817031D02*
X17089230Y-12836079D01*
X17089230Y-12836079D02*
X17089230Y-12883698D01*
X17089230Y-12883698D02*
X17098753Y-12902746D01*
X17098753Y-12902746D02*
X17108277Y-12912269D01*
X17108277Y-12912269D02*
X17127325Y-12921793D01*
X17127325Y-12921793D02*
X17165420Y-12921793D01*
X17165420Y-12921793D02*
X17184468Y-12912269D01*
X17184468Y-12912269D02*
X17193991Y-12902746D01*
X17193991Y-12902746D02*
X17203515Y-12883698D01*
X17441611Y-12997984D02*
X17441611Y-12797984D01*
X17527325Y-12997984D02*
X17527325Y-12893222D01*
X17527325Y-12893222D02*
X17517801Y-12874174D01*
X17517801Y-12874174D02*
X17498753Y-12864650D01*
X17498753Y-12864650D02*
X17470182Y-12864650D01*
X17470182Y-12864650D02*
X17451134Y-12874174D01*
X17451134Y-12874174D02*
X17441611Y-12883698D01*
X17651134Y-12997984D02*
X17632087Y-12988460D01*
X17632087Y-12988460D02*
X17622563Y-12978936D01*
X17622563Y-12978936D02*
X17613039Y-12959888D01*
X17613039Y-12959888D02*
X17613039Y-12902746D01*
X17613039Y-12902746D02*
X17622563Y-12883698D01*
X17622563Y-12883698D02*
X17632087Y-12874174D01*
X17632087Y-12874174D02*
X17651134Y-12864650D01*
X17651134Y-12864650D02*
X17679706Y-12864650D01*
X17679706Y-12864650D02*
X17698753Y-12874174D01*
X17698753Y-12874174D02*
X17708277Y-12883698D01*
X17708277Y-12883698D02*
X17717801Y-12902746D01*
X17717801Y-12902746D02*
X17717801Y-12959888D01*
X17717801Y-12959888D02*
X17708277Y-12978936D01*
X17708277Y-12978936D02*
X17698753Y-12988460D01*
X17698753Y-12988460D02*
X17679706Y-12997984D01*
X17679706Y-12997984D02*
X17651134Y-12997984D01*
X17832087Y-12997984D02*
X17813039Y-12988460D01*
X17813039Y-12988460D02*
X17803515Y-12969412D01*
X17803515Y-12969412D02*
X17803515Y-12797984D01*
X17984468Y-12988460D02*
X17965420Y-12997984D01*
X17965420Y-12997984D02*
X17927325Y-12997984D01*
X17927325Y-12997984D02*
X17908277Y-12988460D01*
X17908277Y-12988460D02*
X17898753Y-12969412D01*
X17898753Y-12969412D02*
X17898753Y-12893222D01*
X17898753Y-12893222D02*
X17908277Y-12874174D01*
X17908277Y-12874174D02*
X17927325Y-12864650D01*
X17927325Y-12864650D02*
X17965420Y-12864650D01*
X17965420Y-12864650D02*
X17984468Y-12874174D01*
X17984468Y-12874174D02*
X17993992Y-12893222D01*
X17993992Y-12893222D02*
X17993992Y-12912269D01*
X17993992Y-12912269D02*
X17898753Y-12931317D01*
X18070182Y-12988460D02*
X18089230Y-12997984D01*
X18089230Y-12997984D02*
X18127325Y-12997984D01*
X18127325Y-12997984D02*
X18146373Y-12988460D01*
X18146373Y-12988460D02*
X18155896Y-12969412D01*
X18155896Y-12969412D02*
X18155896Y-12959888D01*
X18155896Y-12959888D02*
X18146373Y-12940841D01*
X18146373Y-12940841D02*
X18127325Y-12931317D01*
X18127325Y-12931317D02*
X18098753Y-12931317D01*
X18098753Y-12931317D02*
X18079706Y-12921793D01*
X18079706Y-12921793D02*
X18070182Y-12902746D01*
X18070182Y-12902746D02*
X18070182Y-12893222D01*
X18070182Y-12893222D02*
X18079706Y-12874174D01*
X18079706Y-12874174D02*
X18098753Y-12864650D01*
X18098753Y-12864650D02*
X18127325Y-12864650D01*
X18127325Y-12864650D02*
X18146373Y-12874174D01*
X18222563Y-13074174D02*
X18232087Y-13064650D01*
X18232087Y-13064650D02*
X18251134Y-13036079D01*
X18251134Y-13036079D02*
X18260658Y-13017031D01*
X18260658Y-13017031D02*
X18270182Y-12988460D01*
X18270182Y-12988460D02*
X18279706Y-12940841D01*
X18279706Y-12940841D02*
X18279706Y-12902746D01*
X18279706Y-12902746D02*
X18270182Y-12855127D01*
X18270182Y-12855127D02*
X18260658Y-12826555D01*
X18260658Y-12826555D02*
X18251134Y-12807508D01*
X18251134Y-12807508D02*
X18232087Y-12778936D01*
X18232087Y-12778936D02*
X18222563Y-12769412D01*
D12*
X13405500Y-13128500D02*
X13405500Y-13212500D01*
X13363500Y-13170500D02*
X13447500Y-13170500D01*
D11*
X13746372Y-13061984D02*
X13765420Y-13061984D01*
X13765420Y-13061984D02*
X13784467Y-13071508D01*
X13784467Y-13071508D02*
X13793991Y-13081031D01*
X13793991Y-13081031D02*
X13803515Y-13100079D01*
X13803515Y-13100079D02*
X13813039Y-13138174D01*
X13813039Y-13138174D02*
X13813039Y-13185793D01*
X13813039Y-13185793D02*
X13803515Y-13223888D01*
X13803515Y-13223888D02*
X13793991Y-13242936D01*
X13793991Y-13242936D02*
X13784467Y-13252460D01*
X13784467Y-13252460D02*
X13765420Y-13261984D01*
X13765420Y-13261984D02*
X13746372Y-13261984D01*
X13746372Y-13261984D02*
X13727324Y-13252460D01*
X13727324Y-13252460D02*
X13717801Y-13242936D01*
X13717801Y-13242936D02*
X13708277Y-13223888D01*
X13708277Y-13223888D02*
X13698753Y-13185793D01*
X13698753Y-13185793D02*
X13698753Y-13138174D01*
X13698753Y-13138174D02*
X13708277Y-13100079D01*
X13708277Y-13100079D02*
X13717801Y-13081031D01*
X13717801Y-13081031D02*
X13727324Y-13071508D01*
X13727324Y-13071508D02*
X13746372Y-13061984D01*
X13898753Y-13242936D02*
X13908277Y-13252460D01*
X13908277Y-13252460D02*
X13898753Y-13261984D01*
X13898753Y-13261984D02*
X13889229Y-13252460D01*
X13889229Y-13252460D02*
X13898753Y-13242936D01*
X13898753Y-13242936D02*
X13898753Y-13261984D01*
X14022562Y-13147698D02*
X14003515Y-13138174D01*
X14003515Y-13138174D02*
X13993991Y-13128650D01*
X13993991Y-13128650D02*
X13984467Y-13109603D01*
X13984467Y-13109603D02*
X13984467Y-13100079D01*
X13984467Y-13100079D02*
X13993991Y-13081031D01*
X13993991Y-13081031D02*
X14003515Y-13071508D01*
X14003515Y-13071508D02*
X14022562Y-13061984D01*
X14022562Y-13061984D02*
X14060658Y-13061984D01*
X14060658Y-13061984D02*
X14079705Y-13071508D01*
X14079705Y-13071508D02*
X14089229Y-13081031D01*
X14089229Y-13081031D02*
X14098753Y-13100079D01*
X14098753Y-13100079D02*
X14098753Y-13109603D01*
X14098753Y-13109603D02*
X14089229Y-13128650D01*
X14089229Y-13128650D02*
X14079705Y-13138174D01*
X14079705Y-13138174D02*
X14060658Y-13147698D01*
X14060658Y-13147698D02*
X14022562Y-13147698D01*
X14022562Y-13147698D02*
X14003515Y-13157222D01*
X14003515Y-13157222D02*
X13993991Y-13166746D01*
X13993991Y-13166746D02*
X13984467Y-13185793D01*
X13984467Y-13185793D02*
X13984467Y-13223888D01*
X13984467Y-13223888D02*
X13993991Y-13242936D01*
X13993991Y-13242936D02*
X14003515Y-13252460D01*
X14003515Y-13252460D02*
X14022562Y-13261984D01*
X14022562Y-13261984D02*
X14060658Y-13261984D01*
X14060658Y-13261984D02*
X14079705Y-13252460D01*
X14079705Y-13252460D02*
X14089229Y-13242936D01*
X14089229Y-13242936D02*
X14098753Y-13223888D01*
X14098753Y-13223888D02*
X14098753Y-13185793D01*
X14098753Y-13185793D02*
X14089229Y-13166746D01*
X14089229Y-13166746D02*
X14079705Y-13157222D01*
X14079705Y-13157222D02*
X14060658Y-13147698D01*
X14270182Y-13128650D02*
X14270182Y-13261984D01*
X14222562Y-13052460D02*
X14174943Y-13195317D01*
X14174943Y-13195317D02*
X14298753Y-13195317D01*
X14413039Y-13061984D02*
X14432086Y-13061984D01*
X14432086Y-13061984D02*
X14451134Y-13071508D01*
X14451134Y-13071508D02*
X14460658Y-13081031D01*
X14460658Y-13081031D02*
X14470182Y-13100079D01*
X14470182Y-13100079D02*
X14479705Y-13138174D01*
X14479705Y-13138174D02*
X14479705Y-13185793D01*
X14479705Y-13185793D02*
X14470182Y-13223888D01*
X14470182Y-13223888D02*
X14460658Y-13242936D01*
X14460658Y-13242936D02*
X14451134Y-13252460D01*
X14451134Y-13252460D02*
X14432086Y-13261984D01*
X14432086Y-13261984D02*
X14413039Y-13261984D01*
X14413039Y-13261984D02*
X14393991Y-13252460D01*
X14393991Y-13252460D02*
X14384467Y-13242936D01*
X14384467Y-13242936D02*
X14374943Y-13223888D01*
X14374943Y-13223888D02*
X14365420Y-13185793D01*
X14365420Y-13185793D02*
X14365420Y-13138174D01*
X14365420Y-13138174D02*
X14374943Y-13100079D01*
X14374943Y-13100079D02*
X14384467Y-13081031D01*
X14384467Y-13081031D02*
X14393991Y-13071508D01*
X14393991Y-13071508D02*
X14413039Y-13061984D01*
X14565420Y-13261984D02*
X14565420Y-13128650D01*
X14565420Y-13147698D02*
X14574943Y-13138174D01*
X14574943Y-13138174D02*
X14593991Y-13128650D01*
X14593991Y-13128650D02*
X14622563Y-13128650D01*
X14622563Y-13128650D02*
X14641610Y-13138174D01*
X14641610Y-13138174D02*
X14651134Y-13157222D01*
X14651134Y-13157222D02*
X14651134Y-13261984D01*
X14651134Y-13157222D02*
X14660658Y-13138174D01*
X14660658Y-13138174D02*
X14679705Y-13128650D01*
X14679705Y-13128650D02*
X14708277Y-13128650D01*
X14708277Y-13128650D02*
X14727324Y-13138174D01*
X14727324Y-13138174D02*
X14736848Y-13157222D01*
X14736848Y-13157222D02*
X14736848Y-13261984D01*
X14832086Y-13261984D02*
X14832086Y-13128650D01*
X14832086Y-13147698D02*
X14841610Y-13138174D01*
X14841610Y-13138174D02*
X14860658Y-13128650D01*
X14860658Y-13128650D02*
X14889229Y-13128650D01*
X14889229Y-13128650D02*
X14908277Y-13138174D01*
X14908277Y-13138174D02*
X14917801Y-13157222D01*
X14917801Y-13157222D02*
X14917801Y-13261984D01*
X14917801Y-13157222D02*
X14927324Y-13138174D01*
X14927324Y-13138174D02*
X14946372Y-13128650D01*
X14946372Y-13128650D02*
X14974943Y-13128650D01*
X14974943Y-13128650D02*
X14993991Y-13138174D01*
X14993991Y-13138174D02*
X15003515Y-13157222D01*
X15003515Y-13157222D02*
X15003515Y-13261984D01*
X15393991Y-13052460D02*
X15222563Y-13309603D01*
X15651134Y-13061984D02*
X15670182Y-13061984D01*
X15670182Y-13061984D02*
X15689229Y-13071508D01*
X15689229Y-13071508D02*
X15698753Y-13081031D01*
X15698753Y-13081031D02*
X15708277Y-13100079D01*
X15708277Y-13100079D02*
X15717801Y-13138174D01*
X15717801Y-13138174D02*
X15717801Y-13185793D01*
X15717801Y-13185793D02*
X15708277Y-13223888D01*
X15708277Y-13223888D02*
X15698753Y-13242936D01*
X15698753Y-13242936D02*
X15689229Y-13252460D01*
X15689229Y-13252460D02*
X15670182Y-13261984D01*
X15670182Y-13261984D02*
X15651134Y-13261984D01*
X15651134Y-13261984D02*
X15632086Y-13252460D01*
X15632086Y-13252460D02*
X15622563Y-13242936D01*
X15622563Y-13242936D02*
X15613039Y-13223888D01*
X15613039Y-13223888D02*
X15603515Y-13185793D01*
X15603515Y-13185793D02*
X15603515Y-13138174D01*
X15603515Y-13138174D02*
X15613039Y-13100079D01*
X15613039Y-13100079D02*
X15622563Y-13081031D01*
X15622563Y-13081031D02*
X15632086Y-13071508D01*
X15632086Y-13071508D02*
X15651134Y-13061984D01*
X15803515Y-13242936D02*
X15813039Y-13252460D01*
X15813039Y-13252460D02*
X15803515Y-13261984D01*
X15803515Y-13261984D02*
X15793991Y-13252460D01*
X15793991Y-13252460D02*
X15803515Y-13242936D01*
X15803515Y-13242936D02*
X15803515Y-13261984D01*
X15936848Y-13061984D02*
X15955896Y-13061984D01*
X15955896Y-13061984D02*
X15974944Y-13071508D01*
X15974944Y-13071508D02*
X15984467Y-13081031D01*
X15984467Y-13081031D02*
X15993991Y-13100079D01*
X15993991Y-13100079D02*
X16003515Y-13138174D01*
X16003515Y-13138174D02*
X16003515Y-13185793D01*
X16003515Y-13185793D02*
X15993991Y-13223888D01*
X15993991Y-13223888D02*
X15984467Y-13242936D01*
X15984467Y-13242936D02*
X15974944Y-13252460D01*
X15974944Y-13252460D02*
X15955896Y-13261984D01*
X15955896Y-13261984D02*
X15936848Y-13261984D01*
X15936848Y-13261984D02*
X15917801Y-13252460D01*
X15917801Y-13252460D02*
X15908277Y-13242936D01*
X15908277Y-13242936D02*
X15898753Y-13223888D01*
X15898753Y-13223888D02*
X15889229Y-13185793D01*
X15889229Y-13185793D02*
X15889229Y-13138174D01*
X15889229Y-13138174D02*
X15898753Y-13100079D01*
X15898753Y-13100079D02*
X15908277Y-13081031D01*
X15908277Y-13081031D02*
X15917801Y-13071508D01*
X15917801Y-13071508D02*
X15936848Y-13061984D01*
X16070182Y-13061984D02*
X16193991Y-13061984D01*
X16193991Y-13061984D02*
X16127325Y-13138174D01*
X16127325Y-13138174D02*
X16155896Y-13138174D01*
X16155896Y-13138174D02*
X16174944Y-13147698D01*
X16174944Y-13147698D02*
X16184467Y-13157222D01*
X16184467Y-13157222D02*
X16193991Y-13176269D01*
X16193991Y-13176269D02*
X16193991Y-13223888D01*
X16193991Y-13223888D02*
X16184467Y-13242936D01*
X16184467Y-13242936D02*
X16174944Y-13252460D01*
X16174944Y-13252460D02*
X16155896Y-13261984D01*
X16155896Y-13261984D02*
X16098753Y-13261984D01*
X16098753Y-13261984D02*
X16079706Y-13252460D01*
X16079706Y-13252460D02*
X16070182Y-13242936D01*
X16260658Y-13061984D02*
X16384467Y-13061984D01*
X16384467Y-13061984D02*
X16317801Y-13138174D01*
X16317801Y-13138174D02*
X16346372Y-13138174D01*
X16346372Y-13138174D02*
X16365420Y-13147698D01*
X16365420Y-13147698D02*
X16374944Y-13157222D01*
X16374944Y-13157222D02*
X16384467Y-13176269D01*
X16384467Y-13176269D02*
X16384467Y-13223888D01*
X16384467Y-13223888D02*
X16374944Y-13242936D01*
X16374944Y-13242936D02*
X16365420Y-13252460D01*
X16365420Y-13252460D02*
X16346372Y-13261984D01*
X16346372Y-13261984D02*
X16289229Y-13261984D01*
X16289229Y-13261984D02*
X16270182Y-13252460D01*
X16270182Y-13252460D02*
X16260658Y-13242936D01*
X16574944Y-13261984D02*
X16460658Y-13261984D01*
X16517801Y-13261984D02*
X16517801Y-13061984D01*
X16517801Y-13061984D02*
X16498753Y-13090555D01*
X16498753Y-13090555D02*
X16479706Y-13109603D01*
X16479706Y-13109603D02*
X16460658Y-13119127D01*
X16651134Y-13061984D02*
X16651134Y-13100079D01*
X16727325Y-13061984D02*
X16727325Y-13100079D01*
X17022563Y-13338174D02*
X17013039Y-13328650D01*
X17013039Y-13328650D02*
X16993991Y-13300079D01*
X16993991Y-13300079D02*
X16984468Y-13281031D01*
X16984468Y-13281031D02*
X16974944Y-13252460D01*
X16974944Y-13252460D02*
X16965420Y-13204841D01*
X16965420Y-13204841D02*
X16965420Y-13166746D01*
X16965420Y-13166746D02*
X16974944Y-13119127D01*
X16974944Y-13119127D02*
X16984468Y-13090555D01*
X16984468Y-13090555D02*
X16993991Y-13071508D01*
X16993991Y-13071508D02*
X17013039Y-13042936D01*
X17013039Y-13042936D02*
X17022563Y-13033412D01*
X17193991Y-13061984D02*
X17098753Y-13061984D01*
X17098753Y-13061984D02*
X17089230Y-13157222D01*
X17089230Y-13157222D02*
X17098753Y-13147698D01*
X17098753Y-13147698D02*
X17117801Y-13138174D01*
X17117801Y-13138174D02*
X17165420Y-13138174D01*
X17165420Y-13138174D02*
X17184468Y-13147698D01*
X17184468Y-13147698D02*
X17193991Y-13157222D01*
X17193991Y-13157222D02*
X17203515Y-13176269D01*
X17203515Y-13176269D02*
X17203515Y-13223888D01*
X17203515Y-13223888D02*
X17193991Y-13242936D01*
X17193991Y-13242936D02*
X17184468Y-13252460D01*
X17184468Y-13252460D02*
X17165420Y-13261984D01*
X17165420Y-13261984D02*
X17117801Y-13261984D01*
X17117801Y-13261984D02*
X17098753Y-13252460D01*
X17098753Y-13252460D02*
X17089230Y-13242936D01*
X17441611Y-13261984D02*
X17441611Y-13061984D01*
X17527325Y-13261984D02*
X17527325Y-13157222D01*
X17527325Y-13157222D02*
X17517801Y-13138174D01*
X17517801Y-13138174D02*
X17498753Y-13128650D01*
X17498753Y-13128650D02*
X17470182Y-13128650D01*
X17470182Y-13128650D02*
X17451134Y-13138174D01*
X17451134Y-13138174D02*
X17441611Y-13147698D01*
X17651134Y-13261984D02*
X17632087Y-13252460D01*
X17632087Y-13252460D02*
X17622563Y-13242936D01*
X17622563Y-13242936D02*
X17613039Y-13223888D01*
X17613039Y-13223888D02*
X17613039Y-13166746D01*
X17613039Y-13166746D02*
X17622563Y-13147698D01*
X17622563Y-13147698D02*
X17632087Y-13138174D01*
X17632087Y-13138174D02*
X17651134Y-13128650D01*
X17651134Y-13128650D02*
X17679706Y-13128650D01*
X17679706Y-13128650D02*
X17698753Y-13138174D01*
X17698753Y-13138174D02*
X17708277Y-13147698D01*
X17708277Y-13147698D02*
X17717801Y-13166746D01*
X17717801Y-13166746D02*
X17717801Y-13223888D01*
X17717801Y-13223888D02*
X17708277Y-13242936D01*
X17708277Y-13242936D02*
X17698753Y-13252460D01*
X17698753Y-13252460D02*
X17679706Y-13261984D01*
X17679706Y-13261984D02*
X17651134Y-13261984D01*
X17832087Y-13261984D02*
X17813039Y-13252460D01*
X17813039Y-13252460D02*
X17803515Y-13233412D01*
X17803515Y-13233412D02*
X17803515Y-13061984D01*
X17984468Y-13252460D02*
X17965420Y-13261984D01*
X17965420Y-13261984D02*
X17927325Y-13261984D01*
X17927325Y-13261984D02*
X17908277Y-13252460D01*
X17908277Y-13252460D02*
X17898753Y-13233412D01*
X17898753Y-13233412D02*
X17898753Y-13157222D01*
X17898753Y-13157222D02*
X17908277Y-13138174D01*
X17908277Y-13138174D02*
X17927325Y-13128650D01*
X17927325Y-13128650D02*
X17965420Y-13128650D01*
X17965420Y-13128650D02*
X17984468Y-13138174D01*
X17984468Y-13138174D02*
X17993992Y-13157222D01*
X17993992Y-13157222D02*
X17993992Y-13176269D01*
X17993992Y-13176269D02*
X17898753Y-13195317D01*
X18070182Y-13252460D02*
X18089230Y-13261984D01*
X18089230Y-13261984D02*
X18127325Y-13261984D01*
X18127325Y-13261984D02*
X18146373Y-13252460D01*
X18146373Y-13252460D02*
X18155896Y-13233412D01*
X18155896Y-13233412D02*
X18155896Y-13223888D01*
X18155896Y-13223888D02*
X18146373Y-13204841D01*
X18146373Y-13204841D02*
X18127325Y-13195317D01*
X18127325Y-13195317D02*
X18098753Y-13195317D01*
X18098753Y-13195317D02*
X18079706Y-13185793D01*
X18079706Y-13185793D02*
X18070182Y-13166746D01*
X18070182Y-13166746D02*
X18070182Y-13157222D01*
X18070182Y-13157222D02*
X18079706Y-13138174D01*
X18079706Y-13138174D02*
X18098753Y-13128650D01*
X18098753Y-13128650D02*
X18127325Y-13128650D01*
X18127325Y-13128650D02*
X18146373Y-13138174D01*
X18222563Y-13338174D02*
X18232087Y-13328650D01*
X18232087Y-13328650D02*
X18251134Y-13300079D01*
X18251134Y-13300079D02*
X18260658Y-13281031D01*
X18260658Y-13281031D02*
X18270182Y-13252460D01*
X18270182Y-13252460D02*
X18279706Y-13204841D01*
X18279706Y-13204841D02*
X18279706Y-13166746D01*
X18279706Y-13166746D02*
X18270182Y-13119127D01*
X18270182Y-13119127D02*
X18260658Y-13090555D01*
X18260658Y-13090555D02*
X18251134Y-13071508D01*
X18251134Y-13071508D02*
X18232087Y-13042936D01*
X18232087Y-13042936D02*
X18222563Y-13033412D01*
X13418211Y-13505211D02*
X13418211Y-13363789D01*
X13276789Y-13363789D01*
X13276789Y-13505211D01*
X13418211Y-13505211D01*
X13698753Y-13345031D02*
X13708277Y-13335508D01*
X13708277Y-13335508D02*
X13727324Y-13325984D01*
X13727324Y-13325984D02*
X13774943Y-13325984D01*
X13774943Y-13325984D02*
X13793991Y-13335508D01*
X13793991Y-13335508D02*
X13803515Y-13345031D01*
X13803515Y-13345031D02*
X13813039Y-13364079D01*
X13813039Y-13364079D02*
X13813039Y-13383127D01*
X13813039Y-13383127D02*
X13803515Y-13411698D01*
X13803515Y-13411698D02*
X13689229Y-13525984D01*
X13689229Y-13525984D02*
X13813039Y-13525984D01*
X13898753Y-13506936D02*
X13908277Y-13516460D01*
X13908277Y-13516460D02*
X13898753Y-13525984D01*
X13898753Y-13525984D02*
X13889229Y-13516460D01*
X13889229Y-13516460D02*
X13898753Y-13506936D01*
X13898753Y-13506936D02*
X13898753Y-13525984D01*
X13984467Y-13345031D02*
X13993991Y-13335508D01*
X13993991Y-13335508D02*
X14013039Y-13325984D01*
X14013039Y-13325984D02*
X14060658Y-13325984D01*
X14060658Y-13325984D02*
X14079705Y-13335508D01*
X14079705Y-13335508D02*
X14089229Y-13345031D01*
X14089229Y-13345031D02*
X14098753Y-13364079D01*
X14098753Y-13364079D02*
X14098753Y-13383127D01*
X14098753Y-13383127D02*
X14089229Y-13411698D01*
X14089229Y-13411698D02*
X13974943Y-13525984D01*
X13974943Y-13525984D02*
X14098753Y-13525984D01*
X14222562Y-13325984D02*
X14241610Y-13325984D01*
X14241610Y-13325984D02*
X14260658Y-13335508D01*
X14260658Y-13335508D02*
X14270182Y-13345031D01*
X14270182Y-13345031D02*
X14279705Y-13364079D01*
X14279705Y-13364079D02*
X14289229Y-13402174D01*
X14289229Y-13402174D02*
X14289229Y-13449793D01*
X14289229Y-13449793D02*
X14279705Y-13487888D01*
X14279705Y-13487888D02*
X14270182Y-13506936D01*
X14270182Y-13506936D02*
X14260658Y-13516460D01*
X14260658Y-13516460D02*
X14241610Y-13525984D01*
X14241610Y-13525984D02*
X14222562Y-13525984D01*
X14222562Y-13525984D02*
X14203515Y-13516460D01*
X14203515Y-13516460D02*
X14193991Y-13506936D01*
X14193991Y-13506936D02*
X14184467Y-13487888D01*
X14184467Y-13487888D02*
X14174943Y-13449793D01*
X14174943Y-13449793D02*
X14174943Y-13402174D01*
X14174943Y-13402174D02*
X14184467Y-13364079D01*
X14184467Y-13364079D02*
X14193991Y-13345031D01*
X14193991Y-13345031D02*
X14203515Y-13335508D01*
X14203515Y-13335508D02*
X14222562Y-13325984D01*
X14413039Y-13325984D02*
X14432086Y-13325984D01*
X14432086Y-13325984D02*
X14451134Y-13335508D01*
X14451134Y-13335508D02*
X14460658Y-13345031D01*
X14460658Y-13345031D02*
X14470182Y-13364079D01*
X14470182Y-13364079D02*
X14479705Y-13402174D01*
X14479705Y-13402174D02*
X14479705Y-13449793D01*
X14479705Y-13449793D02*
X14470182Y-13487888D01*
X14470182Y-13487888D02*
X14460658Y-13506936D01*
X14460658Y-13506936D02*
X14451134Y-13516460D01*
X14451134Y-13516460D02*
X14432086Y-13525984D01*
X14432086Y-13525984D02*
X14413039Y-13525984D01*
X14413039Y-13525984D02*
X14393991Y-13516460D01*
X14393991Y-13516460D02*
X14384467Y-13506936D01*
X14384467Y-13506936D02*
X14374943Y-13487888D01*
X14374943Y-13487888D02*
X14365420Y-13449793D01*
X14365420Y-13449793D02*
X14365420Y-13402174D01*
X14365420Y-13402174D02*
X14374943Y-13364079D01*
X14374943Y-13364079D02*
X14384467Y-13345031D01*
X14384467Y-13345031D02*
X14393991Y-13335508D01*
X14393991Y-13335508D02*
X14413039Y-13325984D01*
X14565420Y-13525984D02*
X14565420Y-13392650D01*
X14565420Y-13411698D02*
X14574943Y-13402174D01*
X14574943Y-13402174D02*
X14593991Y-13392650D01*
X14593991Y-13392650D02*
X14622563Y-13392650D01*
X14622563Y-13392650D02*
X14641610Y-13402174D01*
X14641610Y-13402174D02*
X14651134Y-13421222D01*
X14651134Y-13421222D02*
X14651134Y-13525984D01*
X14651134Y-13421222D02*
X14660658Y-13402174D01*
X14660658Y-13402174D02*
X14679705Y-13392650D01*
X14679705Y-13392650D02*
X14708277Y-13392650D01*
X14708277Y-13392650D02*
X14727324Y-13402174D01*
X14727324Y-13402174D02*
X14736848Y-13421222D01*
X14736848Y-13421222D02*
X14736848Y-13525984D01*
X14832086Y-13525984D02*
X14832086Y-13392650D01*
X14832086Y-13411698D02*
X14841610Y-13402174D01*
X14841610Y-13402174D02*
X14860658Y-13392650D01*
X14860658Y-13392650D02*
X14889229Y-13392650D01*
X14889229Y-13392650D02*
X14908277Y-13402174D01*
X14908277Y-13402174D02*
X14917801Y-13421222D01*
X14917801Y-13421222D02*
X14917801Y-13525984D01*
X14917801Y-13421222D02*
X14927324Y-13402174D01*
X14927324Y-13402174D02*
X14946372Y-13392650D01*
X14946372Y-13392650D02*
X14974943Y-13392650D01*
X14974943Y-13392650D02*
X14993991Y-13402174D01*
X14993991Y-13402174D02*
X15003515Y-13421222D01*
X15003515Y-13421222D02*
X15003515Y-13525984D01*
X15393991Y-13316460D02*
X15222563Y-13573603D01*
X15651134Y-13325984D02*
X15670182Y-13325984D01*
X15670182Y-13325984D02*
X15689229Y-13335508D01*
X15689229Y-13335508D02*
X15698753Y-13345031D01*
X15698753Y-13345031D02*
X15708277Y-13364079D01*
X15708277Y-13364079D02*
X15717801Y-13402174D01*
X15717801Y-13402174D02*
X15717801Y-13449793D01*
X15717801Y-13449793D02*
X15708277Y-13487888D01*
X15708277Y-13487888D02*
X15698753Y-13506936D01*
X15698753Y-13506936D02*
X15689229Y-13516460D01*
X15689229Y-13516460D02*
X15670182Y-13525984D01*
X15670182Y-13525984D02*
X15651134Y-13525984D01*
X15651134Y-13525984D02*
X15632086Y-13516460D01*
X15632086Y-13516460D02*
X15622563Y-13506936D01*
X15622563Y-13506936D02*
X15613039Y-13487888D01*
X15613039Y-13487888D02*
X15603515Y-13449793D01*
X15603515Y-13449793D02*
X15603515Y-13402174D01*
X15603515Y-13402174D02*
X15613039Y-13364079D01*
X15613039Y-13364079D02*
X15622563Y-13345031D01*
X15622563Y-13345031D02*
X15632086Y-13335508D01*
X15632086Y-13335508D02*
X15651134Y-13325984D01*
X15803515Y-13506936D02*
X15813039Y-13516460D01*
X15813039Y-13516460D02*
X15803515Y-13525984D01*
X15803515Y-13525984D02*
X15793991Y-13516460D01*
X15793991Y-13516460D02*
X15803515Y-13506936D01*
X15803515Y-13506936D02*
X15803515Y-13525984D01*
X15936848Y-13325984D02*
X15955896Y-13325984D01*
X15955896Y-13325984D02*
X15974944Y-13335508D01*
X15974944Y-13335508D02*
X15984467Y-13345031D01*
X15984467Y-13345031D02*
X15993991Y-13364079D01*
X15993991Y-13364079D02*
X16003515Y-13402174D01*
X16003515Y-13402174D02*
X16003515Y-13449793D01*
X16003515Y-13449793D02*
X15993991Y-13487888D01*
X15993991Y-13487888D02*
X15984467Y-13506936D01*
X15984467Y-13506936D02*
X15974944Y-13516460D01*
X15974944Y-13516460D02*
X15955896Y-13525984D01*
X15955896Y-13525984D02*
X15936848Y-13525984D01*
X15936848Y-13525984D02*
X15917801Y-13516460D01*
X15917801Y-13516460D02*
X15908277Y-13506936D01*
X15908277Y-13506936D02*
X15898753Y-13487888D01*
X15898753Y-13487888D02*
X15889229Y-13449793D01*
X15889229Y-13449793D02*
X15889229Y-13402174D01*
X15889229Y-13402174D02*
X15898753Y-13364079D01*
X15898753Y-13364079D02*
X15908277Y-13345031D01*
X15908277Y-13345031D02*
X15917801Y-13335508D01*
X15917801Y-13335508D02*
X15936848Y-13325984D01*
X16117801Y-13411698D02*
X16098753Y-13402174D01*
X16098753Y-13402174D02*
X16089229Y-13392650D01*
X16089229Y-13392650D02*
X16079706Y-13373603D01*
X16079706Y-13373603D02*
X16079706Y-13364079D01*
X16079706Y-13364079D02*
X16089229Y-13345031D01*
X16089229Y-13345031D02*
X16098753Y-13335508D01*
X16098753Y-13335508D02*
X16117801Y-13325984D01*
X16117801Y-13325984D02*
X16155896Y-13325984D01*
X16155896Y-13325984D02*
X16174944Y-13335508D01*
X16174944Y-13335508D02*
X16184467Y-13345031D01*
X16184467Y-13345031D02*
X16193991Y-13364079D01*
X16193991Y-13364079D02*
X16193991Y-13373603D01*
X16193991Y-13373603D02*
X16184467Y-13392650D01*
X16184467Y-13392650D02*
X16174944Y-13402174D01*
X16174944Y-13402174D02*
X16155896Y-13411698D01*
X16155896Y-13411698D02*
X16117801Y-13411698D01*
X16117801Y-13411698D02*
X16098753Y-13421222D01*
X16098753Y-13421222D02*
X16089229Y-13430746D01*
X16089229Y-13430746D02*
X16079706Y-13449793D01*
X16079706Y-13449793D02*
X16079706Y-13487888D01*
X16079706Y-13487888D02*
X16089229Y-13506936D01*
X16089229Y-13506936D02*
X16098753Y-13516460D01*
X16098753Y-13516460D02*
X16117801Y-13525984D01*
X16117801Y-13525984D02*
X16155896Y-13525984D01*
X16155896Y-13525984D02*
X16174944Y-13516460D01*
X16174944Y-13516460D02*
X16184467Y-13506936D01*
X16184467Y-13506936D02*
X16193991Y-13487888D01*
X16193991Y-13487888D02*
X16193991Y-13449793D01*
X16193991Y-13449793D02*
X16184467Y-13430746D01*
X16184467Y-13430746D02*
X16174944Y-13421222D01*
X16174944Y-13421222D02*
X16155896Y-13411698D01*
X16365420Y-13325984D02*
X16327325Y-13325984D01*
X16327325Y-13325984D02*
X16308277Y-13335508D01*
X16308277Y-13335508D02*
X16298753Y-13345031D01*
X16298753Y-13345031D02*
X16279706Y-13373603D01*
X16279706Y-13373603D02*
X16270182Y-13411698D01*
X16270182Y-13411698D02*
X16270182Y-13487888D01*
X16270182Y-13487888D02*
X16279706Y-13506936D01*
X16279706Y-13506936D02*
X16289229Y-13516460D01*
X16289229Y-13516460D02*
X16308277Y-13525984D01*
X16308277Y-13525984D02*
X16346372Y-13525984D01*
X16346372Y-13525984D02*
X16365420Y-13516460D01*
X16365420Y-13516460D02*
X16374944Y-13506936D01*
X16374944Y-13506936D02*
X16384467Y-13487888D01*
X16384467Y-13487888D02*
X16384467Y-13440269D01*
X16384467Y-13440269D02*
X16374944Y-13421222D01*
X16374944Y-13421222D02*
X16365420Y-13411698D01*
X16365420Y-13411698D02*
X16346372Y-13402174D01*
X16346372Y-13402174D02*
X16308277Y-13402174D01*
X16308277Y-13402174D02*
X16289229Y-13411698D01*
X16289229Y-13411698D02*
X16279706Y-13421222D01*
X16279706Y-13421222D02*
X16270182Y-13440269D01*
X16555896Y-13325984D02*
X16517801Y-13325984D01*
X16517801Y-13325984D02*
X16498753Y-13335508D01*
X16498753Y-13335508D02*
X16489229Y-13345031D01*
X16489229Y-13345031D02*
X16470182Y-13373603D01*
X16470182Y-13373603D02*
X16460658Y-13411698D01*
X16460658Y-13411698D02*
X16460658Y-13487888D01*
X16460658Y-13487888D02*
X16470182Y-13506936D01*
X16470182Y-13506936D02*
X16479706Y-13516460D01*
X16479706Y-13516460D02*
X16498753Y-13525984D01*
X16498753Y-13525984D02*
X16536848Y-13525984D01*
X16536848Y-13525984D02*
X16555896Y-13516460D01*
X16555896Y-13516460D02*
X16565420Y-13506936D01*
X16565420Y-13506936D02*
X16574944Y-13487888D01*
X16574944Y-13487888D02*
X16574944Y-13440269D01*
X16574944Y-13440269D02*
X16565420Y-13421222D01*
X16565420Y-13421222D02*
X16555896Y-13411698D01*
X16555896Y-13411698D02*
X16536848Y-13402174D01*
X16536848Y-13402174D02*
X16498753Y-13402174D01*
X16498753Y-13402174D02*
X16479706Y-13411698D01*
X16479706Y-13411698D02*
X16470182Y-13421222D01*
X16470182Y-13421222D02*
X16460658Y-13440269D01*
X16651134Y-13325984D02*
X16651134Y-13364079D01*
X16727325Y-13325984D02*
X16727325Y-13364079D01*
X17022563Y-13602174D02*
X17013039Y-13592650D01*
X17013039Y-13592650D02*
X16993991Y-13564079D01*
X16993991Y-13564079D02*
X16984468Y-13545031D01*
X16984468Y-13545031D02*
X16974944Y-13516460D01*
X16974944Y-13516460D02*
X16965420Y-13468841D01*
X16965420Y-13468841D02*
X16965420Y-13430746D01*
X16965420Y-13430746D02*
X16974944Y-13383127D01*
X16974944Y-13383127D02*
X16984468Y-13354555D01*
X16984468Y-13354555D02*
X16993991Y-13335508D01*
X16993991Y-13335508D02*
X17013039Y-13306936D01*
X17013039Y-13306936D02*
X17022563Y-13297412D01*
X17184468Y-13392650D02*
X17184468Y-13525984D01*
X17136849Y-13316460D02*
X17089230Y-13459317D01*
X17089230Y-13459317D02*
X17213039Y-13459317D01*
X17441611Y-13525984D02*
X17441611Y-13325984D01*
X17527325Y-13525984D02*
X17527325Y-13421222D01*
X17527325Y-13421222D02*
X17517801Y-13402174D01*
X17517801Y-13402174D02*
X17498753Y-13392650D01*
X17498753Y-13392650D02*
X17470182Y-13392650D01*
X17470182Y-13392650D02*
X17451134Y-13402174D01*
X17451134Y-13402174D02*
X17441611Y-13411698D01*
X17651134Y-13525984D02*
X17632087Y-13516460D01*
X17632087Y-13516460D02*
X17622563Y-13506936D01*
X17622563Y-13506936D02*
X17613039Y-13487888D01*
X17613039Y-13487888D02*
X17613039Y-13430746D01*
X17613039Y-13430746D02*
X17622563Y-13411698D01*
X17622563Y-13411698D02*
X17632087Y-13402174D01*
X17632087Y-13402174D02*
X17651134Y-13392650D01*
X17651134Y-13392650D02*
X17679706Y-13392650D01*
X17679706Y-13392650D02*
X17698753Y-13402174D01*
X17698753Y-13402174D02*
X17708277Y-13411698D01*
X17708277Y-13411698D02*
X17717801Y-13430746D01*
X17717801Y-13430746D02*
X17717801Y-13487888D01*
X17717801Y-13487888D02*
X17708277Y-13506936D01*
X17708277Y-13506936D02*
X17698753Y-13516460D01*
X17698753Y-13516460D02*
X17679706Y-13525984D01*
X17679706Y-13525984D02*
X17651134Y-13525984D01*
X17832087Y-13525984D02*
X17813039Y-13516460D01*
X17813039Y-13516460D02*
X17803515Y-13497412D01*
X17803515Y-13497412D02*
X17803515Y-13325984D01*
X17984468Y-13516460D02*
X17965420Y-13525984D01*
X17965420Y-13525984D02*
X17927325Y-13525984D01*
X17927325Y-13525984D02*
X17908277Y-13516460D01*
X17908277Y-13516460D02*
X17898753Y-13497412D01*
X17898753Y-13497412D02*
X17898753Y-13421222D01*
X17898753Y-13421222D02*
X17908277Y-13402174D01*
X17908277Y-13402174D02*
X17927325Y-13392650D01*
X17927325Y-13392650D02*
X17965420Y-13392650D01*
X17965420Y-13392650D02*
X17984468Y-13402174D01*
X17984468Y-13402174D02*
X17993992Y-13421222D01*
X17993992Y-13421222D02*
X17993992Y-13440269D01*
X17993992Y-13440269D02*
X17898753Y-13459317D01*
X18070182Y-13516460D02*
X18089230Y-13525984D01*
X18089230Y-13525984D02*
X18127325Y-13525984D01*
X18127325Y-13525984D02*
X18146373Y-13516460D01*
X18146373Y-13516460D02*
X18155896Y-13497412D01*
X18155896Y-13497412D02*
X18155896Y-13487888D01*
X18155896Y-13487888D02*
X18146373Y-13468841D01*
X18146373Y-13468841D02*
X18127325Y-13459317D01*
X18127325Y-13459317D02*
X18098753Y-13459317D01*
X18098753Y-13459317D02*
X18079706Y-13449793D01*
X18079706Y-13449793D02*
X18070182Y-13430746D01*
X18070182Y-13430746D02*
X18070182Y-13421222D01*
X18070182Y-13421222D02*
X18079706Y-13402174D01*
X18079706Y-13402174D02*
X18098753Y-13392650D01*
X18098753Y-13392650D02*
X18127325Y-13392650D01*
X18127325Y-13392650D02*
X18146373Y-13402174D01*
X18222563Y-13602174D02*
X18232087Y-13592650D01*
X18232087Y-13592650D02*
X18251134Y-13564079D01*
X18251134Y-13564079D02*
X18260658Y-13545031D01*
X18260658Y-13545031D02*
X18270182Y-13516460D01*
X18270182Y-13516460D02*
X18279706Y-13468841D01*
X18279706Y-13468841D02*
X18279706Y-13430746D01*
X18279706Y-13430746D02*
X18270182Y-13383127D01*
X18270182Y-13383127D02*
X18260658Y-13354555D01*
X18260658Y-13354555D02*
X18251134Y-13335508D01*
X18251134Y-13335508D02*
X18232087Y-13306936D01*
X18232087Y-13306936D02*
X18222563Y-13297412D01*
M02*
